<svg width="36" height="36" viewBox="0 0 36 36" fill="none" xmlns="http://www.w3.org/2000/svg">
<path d="M18 36C27.9411 36 36 27.9411 36 18C36 8.05887 27.9411 0 18 0C8.05887 0 0 8.05887 0 18C0 27.9411 8.05887 36 18 36Z" fill="#F4ECE0"/>
<path d="M26.7427 12.2484C26.664 12.1697 26.5706 12.1072 26.4677 12.0646C26.3648 12.0219 26.2546 12 26.1432 12C26.0318 12 25.9216 12.0219 25.8187 12.0646C25.7158 12.1072 25.6224 12.1697 25.5437 12.2484L15.3861 22.4085L11.4783 18.5033C11.4014 18.4176 11.3078 18.3485 11.2032 18.3002C11.0987 18.2518 10.9854 18.2253 10.8702 18.2223C10.7551 18.2192 10.6405 18.2396 10.5336 18.2823C10.4266 18.3249 10.3294 18.389 10.248 18.4704C10.1666 18.5519 10.1026 18.6491 10.06 18.7561C10.0174 18.8631 9.9971 18.9777 10.0003 19.0928C10.0034 19.208 10.03 19.3213 10.0784 19.4258C10.1268 19.5303 10.196 19.6239 10.2817 19.7007L14.7836 24.2076C14.9427 24.3665 15.1583 24.4557 15.3831 24.4557C15.608 24.4557 15.8236 24.3665 15.9827 24.2076L26.7427 13.4484C26.8216 13.3696 26.8842 13.2761 26.9269 13.1732C26.9696 13.0702 26.9916 12.9599 26.9916 12.8484C26.9916 12.737 26.9696 12.6266 26.9269 12.5236C26.8842 12.4207 26.8216 12.3272 26.7427 12.2484Z" fill="#FF733B"/>
</svg>
