<svg width="421" height="36" viewBox="0 0 421 36" fill="none" xmlns="http://www.w3.org/2000/svg">
<path d="M18 36C27.9411 36 36 27.9411 36 18C36 8.05887 27.9411 0 18 0C8.05887 0 0 8.05887 0 18C0 27.9411 8.05887 36 18 36Z" fill="#F4ECE0"/>
<path d="M26.7427 12.2484C26.664 12.1697 26.5706 12.1072 26.4677 12.0646C26.3648 12.0219 26.2546 12 26.1432 12C26.0318 12 25.9216 12.0219 25.8187 12.0646C25.7158 12.1072 25.6224 12.1697 25.5437 12.2484L15.3861 22.4085L11.4783 18.5033C11.4014 18.4176 11.3078 18.3485 11.2032 18.3002C11.0987 18.2518 10.9854 18.2253 10.8702 18.2223C10.7551 18.2192 10.6405 18.2396 10.5336 18.2823C10.4266 18.3249 10.3294 18.389 10.248 18.4704C10.1666 18.5519 10.1026 18.6491 10.06 18.7561C10.0174 18.8631 9.9971 18.9777 10.0003 19.0928C10.0034 19.208 10.03 19.3213 10.0784 19.4258C10.1268 19.5303 10.196 19.6239 10.2817 19.7007L14.7836 24.2076C14.9427 24.3665 15.1583 24.4557 15.3831 24.4557C15.608 24.4557 15.8236 24.3665 15.9827 24.2076L26.7427 13.4484C26.8216 13.3696 26.8842 13.2761 26.9269 13.1732C26.9696 13.0702 26.9916 12.9599 26.9916 12.8484C26.9916 12.737 26.9696 12.6266 26.9269 12.5236C26.8842 12.4207 26.8216 12.3272 26.7427 12.2484Z" fill="#FF733B"/>
<path d="M58.668 17.538C59.124 17.61 59.538 17.796 59.91 18.096C60.294 18.396 60.594 18.768 60.81 19.212C61.038 19.656 61.152 20.13 61.152 20.634C61.152 21.27 60.99 21.846 60.666 22.362C60.342 22.866 59.868 23.268 59.244 23.568C58.632 23.856 57.906 24 57.066 24H52.386V11.454H56.886C57.738 11.454 58.464 11.598 59.064 11.886C59.664 12.162 60.114 12.54 60.414 13.02C60.714 13.5 60.864 14.04 60.864 14.64C60.864 15.384 60.66 16.002 60.252 16.494C59.856 16.974 59.328 17.322 58.668 17.538ZM54.024 16.872H56.778C57.546 16.872 58.14 16.692 58.56 16.332C58.98 15.972 59.19 15.474 59.19 14.838C59.19 14.202 58.98 13.704 58.56 13.344C58.14 12.984 57.534 12.804 56.742 12.804H54.024V16.872ZM56.922 22.65C57.738 22.65 58.374 22.458 58.83 22.074C59.286 21.69 59.514 21.156 59.514 20.472C59.514 19.776 59.274 19.23 58.794 18.834C58.314 18.426 57.672 18.222 56.868 18.222H54.024V22.65H56.922ZM65.0631 10.68V24H63.4251V10.68H65.0631ZM67.2428 19.032C67.2428 18.024 67.4468 17.142 67.8548 16.386C68.2628 15.618 68.8208 15.024 69.5288 14.604C70.2488 14.184 71.0468 13.974 71.9228 13.974C72.7868 13.974 73.5368 14.16 74.1728 14.532C74.8088 14.904 75.2828 15.372 75.5948 15.936V14.136H77.2508V24H75.5948V22.164C75.2708 22.74 74.7848 23.22 74.1368 23.604C73.5008 23.976 72.7568 24.162 71.9048 24.162C71.0288 24.162 70.2368 23.946 69.5288 23.514C68.8208 23.082 68.2628 22.476 67.8548 21.696C67.4468 20.916 67.2428 20.028 67.2428 19.032ZM75.5948 19.05C75.5948 18.306 75.4448 17.658 75.1448 17.106C74.8448 16.554 74.4368 16.134 73.9208 15.846C73.4168 15.546 72.8588 15.396 72.2468 15.396C71.6348 15.396 71.0768 15.54 70.5728 15.828C70.0688 16.116 69.6668 16.536 69.3668 17.088C69.0668 17.64 68.9168 18.288 68.9168 19.032C68.9168 19.788 69.0668 20.448 69.3668 21.012C69.6668 21.564 70.0688 21.99 70.5728 22.29C71.0768 22.578 71.6348 22.722 72.2468 22.722C72.8588 22.722 73.4168 22.578 73.9208 22.29C74.4368 21.99 74.8448 21.564 75.1448 21.012C75.4448 20.448 75.5948 19.794 75.5948 19.05ZM84.8248 13.956C86.0248 13.956 86.9968 14.322 87.7408 15.054C88.4848 15.774 88.8568 16.818 88.8568 18.186V24H87.2368V18.42C87.2368 17.436 86.9908 16.686 86.4988 16.17C86.0068 15.642 85.3348 15.378 84.4828 15.378C83.6188 15.378 82.9288 15.648 82.4128 16.188C81.9088 16.728 81.6568 17.514 81.6568 18.546V24H80.0188V14.136H81.6568V15.54C81.9808 15.036 82.4188 14.646 82.9708 14.37C83.5348 14.094 84.1528 13.956 84.8248 13.956ZM90.9205 19.032C90.9205 18.024 91.1245 17.142 91.5325 16.386C91.9405 15.618 92.4985 15.024 93.2065 14.604C93.9265 14.184 94.7305 13.974 95.6185 13.974C96.3865 13.974 97.1005 14.154 97.7605 14.514C98.4205 14.862 98.9245 15.324 99.2725 15.9V10.68H100.928V24H99.2725V22.146C98.9485 22.734 98.4685 23.22 97.8325 23.604C97.1965 23.976 96.4525 24.162 95.6005 24.162C94.7245 24.162 93.9265 23.946 93.2065 23.514C92.4985 23.082 91.9405 22.476 91.5325 21.696C91.1245 20.916 90.9205 20.028 90.9205 19.032ZM99.2725 19.05C99.2725 18.306 99.1225 17.658 98.8225 17.106C98.5225 16.554 98.1145 16.134 97.5985 15.846C97.0945 15.546 96.5365 15.396 95.9245 15.396C95.3125 15.396 94.7545 15.54 94.2505 15.828C93.7465 16.116 93.3445 16.536 93.0445 17.088C92.7445 17.64 92.5945 18.288 92.5945 19.032C92.5945 19.788 92.7445 20.448 93.0445 21.012C93.3445 21.564 93.7465 21.99 94.2505 22.29C94.7545 22.578 95.3125 22.722 95.9245 22.722C96.5365 22.722 97.0945 22.578 97.5985 22.29C98.1145 21.99 98.5225 21.564 98.8225 21.012C99.1225 20.448 99.2725 19.794 99.2725 19.05ZM104.543 12.534C104.231 12.534 103.967 12.426 103.751 12.21C103.535 11.994 103.427 11.73 103.427 11.418C103.427 11.106 103.535 10.842 103.751 10.626C103.967 10.41 104.231 10.302 104.543 10.302C104.843 10.302 105.095 10.41 105.299 10.626C105.515 10.842 105.623 11.106 105.623 11.418C105.623 11.73 105.515 11.994 105.299 12.21C105.095 12.426 104.843 12.534 104.543 12.534ZM105.335 14.136V24H103.697V14.136H105.335ZM110.124 15.486V21.3C110.124 21.78 110.226 22.122 110.43 22.326C110.634 22.518 110.988 22.614 111.492 22.614H112.698V24H111.222C110.31 24 109.626 23.79 109.17 23.37C108.714 22.95 108.486 22.26 108.486 21.3V15.486H107.208V14.136H108.486V11.652H110.124V14.136H112.698V15.486H110.124ZM128.23 14.136V24H126.592V22.542C126.28 23.046 125.842 23.442 125.278 23.73C124.726 24.006 124.114 24.144 123.442 24.144C122.674 24.144 121.984 23.988 121.372 23.676C120.76 23.352 120.274 22.872 119.914 22.236C119.566 21.6 119.392 20.826 119.392 19.914V14.136H121.012V19.698C121.012 20.67 121.258 21.42 121.75 21.948C122.242 22.464 122.914 22.722 123.766 22.722C124.642 22.722 125.332 22.452 125.836 21.912C126.34 21.372 126.592 20.586 126.592 19.554V14.136H128.23ZM132.993 15.486V21.3C132.993 21.78 133.095 22.122 133.299 22.326C133.503 22.518 133.857 22.614 134.361 22.614H135.567V24H134.091C133.179 24 132.495 23.79 132.039 23.37C131.583 22.95 131.355 22.26 131.355 21.3V15.486H130.077V14.136H131.355V11.652H132.993V14.136H135.567V15.486H132.993ZM147.157 13.956C148.357 13.956 149.329 14.322 150.073 15.054C150.817 15.774 151.189 16.818 151.189 18.186V24H149.569V18.42C149.569 17.436 149.323 16.686 148.831 16.17C148.339 15.642 147.667 15.378 146.815 15.378C145.951 15.378 145.261 15.648 144.745 16.188C144.241 16.728 143.989 17.514 143.989 18.546V24H142.351V14.136H143.989V15.54C144.313 15.036 144.751 14.646 145.303 14.37C145.867 14.094 146.485 13.956 147.157 13.956ZM162.613 14.136V24H160.975V22.542C160.663 23.046 160.225 23.442 159.661 23.73C159.109 24.006 158.497 24.144 157.825 24.144C157.057 24.144 156.367 23.988 155.755 23.676C155.143 23.352 154.657 22.872 154.297 22.236C153.949 21.6 153.775 20.826 153.775 19.914V14.136H155.395V19.698C155.395 20.67 155.641 21.42 156.133 21.948C156.625 22.464 157.297 22.722 158.149 22.722C159.025 22.722 159.715 22.452 160.219 21.912C160.723 21.372 160.975 20.586 160.975 19.554V14.136H162.613ZM170.184 13.956C171.384 13.956 172.356 14.322 173.1 15.054C173.844 15.774 174.216 16.818 174.216 18.186V24H172.596V18.42C172.596 17.436 172.35 16.686 171.858 16.17C171.366 15.642 170.694 15.378 169.842 15.378C168.978 15.378 168.288 15.648 167.772 16.188C167.268 16.728 167.016 17.514 167.016 18.546V24H165.378V14.136H167.016V15.54C167.34 15.036 167.778 14.646 168.33 14.37C168.894 14.094 169.512 13.956 170.184 13.956ZM176.28 19.05C176.28 18.03 176.484 17.142 176.892 16.386C177.3 15.618 177.864 15.024 178.584 14.604C179.316 14.184 180.15 13.974 181.086 13.974C182.298 13.974 183.294 14.268 184.074 14.856C184.866 15.444 185.388 16.26 185.64 17.304H183.876C183.708 16.704 183.378 16.23 182.886 15.882C182.406 15.534 181.806 15.36 181.086 15.36C180.15 15.36 179.394 15.684 178.818 16.332C178.242 16.968 177.954 17.874 177.954 19.05C177.954 20.238 178.242 21.156 178.818 21.804C179.394 22.452 180.15 22.776 181.086 22.776C181.806 22.776 182.406 22.608 182.886 22.272C183.366 21.936 183.696 21.456 183.876 20.832H185.64C185.376 21.84 184.848 22.65 184.056 23.262C183.264 23.862 182.274 24.162 181.086 24.162C180.15 24.162 179.316 23.952 178.584 23.532C177.864 23.112 177.3 22.518 176.892 21.75C176.484 20.982 176.28 20.082 176.28 19.05ZM196.296 22.488L199.356 14.136H201.102L197.232 24H195.324L191.454 14.136H193.218L196.296 22.488ZM211.714 18.69C211.714 19.002 211.696 19.332 211.66 19.68H203.776C203.836 20.652 204.166 21.414 204.766 21.966C205.378 22.506 206.116 22.776 206.98 22.776C207.688 22.776 208.276 22.614 208.744 22.29C209.224 21.954 209.56 21.51 209.752 20.958H211.516C211.252 21.906 210.724 22.68 209.932 23.28C209.14 23.868 208.156 24.162 206.98 24.162C206.044 24.162 205.204 23.952 204.46 23.532C203.728 23.112 203.152 22.518 202.732 21.75C202.312 20.97 202.102 20.07 202.102 19.05C202.102 18.03 202.306 17.136 202.714 16.368C203.122 15.6 203.692 15.012 204.424 14.604C205.168 14.184 206.02 13.974 206.98 13.974C207.916 13.974 208.744 14.178 209.464 14.586C210.184 14.994 210.736 15.558 211.12 16.278C211.516 16.986 211.714 17.79 211.714 18.69ZM210.022 18.348C210.022 17.724 209.884 17.19 209.608 16.746C209.332 16.29 208.954 15.948 208.474 15.72C208.006 15.48 207.484 15.36 206.908 15.36C206.08 15.36 205.372 15.624 204.784 16.152C204.208 16.68 203.878 17.412 203.794 18.348H210.022ZM215.514 10.68V24H213.876V10.68H215.514ZM224.743 15.972C225.079 15.384 225.571 14.904 226.219 14.532C226.867 14.16 227.605 13.974 228.433 13.974C229.321 13.974 230.119 14.184 230.827 14.604C231.535 15.024 232.093 15.618 232.501 16.386C232.909 17.142 233.113 18.024 233.113 19.032C233.113 20.028 232.909 20.916 232.501 21.696C232.093 22.476 231.529 23.082 230.809 23.514C230.101 23.946 229.309 24.162 228.433 24.162C227.581 24.162 226.831 23.976 226.183 23.604C225.547 23.232 225.067 22.758 224.743 22.182V24H223.105V10.68H224.743V15.972ZM231.439 19.032C231.439 18.288 231.289 17.64 230.989 17.088C230.689 16.536 230.281 16.116 229.765 15.828C229.261 15.54 228.703 15.396 228.091 15.396C227.491 15.396 226.933 15.546 226.417 15.846C225.913 16.134 225.505 16.56 225.193 17.124C224.893 17.676 224.743 18.318 224.743 19.05C224.743 19.794 224.893 20.448 225.193 21.012C225.505 21.564 225.913 21.99 226.417 22.29C226.933 22.578 227.491 22.722 228.091 22.722C228.703 22.722 229.261 22.578 229.765 22.29C230.281 21.99 230.689 21.564 230.989 21.012C231.289 20.448 231.439 19.788 231.439 19.032ZM236.115 12.534C235.803 12.534 235.539 12.426 235.323 12.21C235.107 11.994 234.999 11.73 234.999 11.418C234.999 11.106 235.107 10.842 235.323 10.626C235.539 10.41 235.803 10.302 236.115 10.302C236.415 10.302 236.667 10.41 236.871 10.626C237.087 10.842 237.195 11.106 237.195 11.418C237.195 11.73 237.087 11.994 236.871 12.21C236.667 12.426 236.415 12.534 236.115 12.534ZM236.907 14.136V24H235.269V14.136H236.907ZM241.337 15.972C241.673 15.384 242.165 14.904 242.812 14.532C243.461 14.16 244.199 13.974 245.027 13.974C245.915 13.974 246.713 14.184 247.421 14.604C248.129 15.024 248.687 15.618 249.095 16.386C249.503 17.142 249.707 18.024 249.707 19.032C249.707 20.028 249.503 20.916 249.095 21.696C248.687 22.476 248.122 23.082 247.402 23.514C246.695 23.946 245.903 24.162 245.027 24.162C244.175 24.162 243.425 23.976 242.777 23.604C242.141 23.232 241.661 22.758 241.337 22.182V24H239.699V10.68H241.337V15.972ZM248.033 19.032C248.033 18.288 247.883 17.64 247.583 17.088C247.283 16.536 246.875 16.116 246.359 15.828C245.855 15.54 245.297 15.396 244.685 15.396C244.085 15.396 243.527 15.546 243.011 15.846C242.507 16.134 242.099 16.56 241.787 17.124C241.487 17.676 241.337 18.318 241.337 19.05C241.337 19.794 241.487 20.448 241.787 21.012C242.099 21.564 242.507 21.99 243.011 22.29C243.527 22.578 244.085 22.722 244.685 22.722C245.297 22.722 245.855 22.578 246.359 22.29C246.875 21.99 247.283 21.564 247.583 21.012C247.883 20.448 248.033 19.788 248.033 19.032ZM260.863 18.69C260.863 19.002 260.845 19.332 260.809 19.68H252.925C252.985 20.652 253.315 21.414 253.915 21.966C254.527 22.506 255.265 22.776 256.129 22.776C256.837 22.776 257.425 22.614 257.893 22.29C258.373 21.954 258.709 21.51 258.901 20.958H260.665C260.401 21.906 259.873 22.68 259.081 23.28C258.289 23.868 257.305 24.162 256.129 24.162C255.193 24.162 254.353 23.952 253.609 23.532C252.877 23.112 252.301 22.518 251.881 21.75C251.461 20.97 251.251 20.07 251.251 19.05C251.251 18.03 251.455 17.136 251.863 16.368C252.271 15.6 252.841 15.012 253.573 14.604C254.317 14.184 255.169 13.974 256.129 13.974C257.065 13.974 257.893 14.178 258.613 14.586C259.333 14.994 259.885 15.558 260.269 16.278C260.665 16.986 260.863 17.79 260.863 18.69ZM259.171 18.348C259.171 17.724 259.033 17.19 258.757 16.746C258.481 16.29 258.103 15.948 257.623 15.72C257.155 15.48 256.633 15.36 256.057 15.36C255.229 15.36 254.521 15.624 253.933 16.152C253.357 16.68 253.027 17.412 252.943 18.348H259.171ZM267.831 13.956C269.031 13.956 270.003 14.322 270.747 15.054C271.491 15.774 271.863 16.818 271.863 18.186V24H270.243V18.42C270.243 17.436 269.997 16.686 269.505 16.17C269.013 15.642 268.341 15.378 267.489 15.378C266.625 15.378 265.935 15.648 265.419 16.188C264.915 16.728 264.663 17.514 264.663 18.546V24H263.025V14.136H264.663V15.54C264.987 15.036 265.425 14.646 265.977 14.37C266.541 14.094 267.159 13.956 267.831 13.956ZM273.926 19.032C273.926 18.024 274.13 17.142 274.538 16.386C274.946 15.618 275.504 15.024 276.212 14.604C276.932 14.184 277.736 13.974 278.624 13.974C279.392 13.974 280.106 14.154 280.766 14.514C281.426 14.862 281.93 15.324 282.278 15.9V10.68H283.934V24H282.278V22.146C281.954 22.734 281.474 23.22 280.838 23.604C280.202 23.976 279.458 24.162 278.606 24.162C277.73 24.162 276.932 23.946 276.212 23.514C275.504 23.082 274.946 22.476 274.538 21.696C274.13 20.916 273.926 20.028 273.926 19.032ZM282.278 19.05C282.278 18.306 282.128 17.658 281.828 17.106C281.528 16.554 281.12 16.134 280.604 15.846C280.1 15.546 279.542 15.396 278.93 15.396C278.318 15.396 277.76 15.54 277.256 15.828C276.752 16.116 276.35 16.536 276.05 17.088C275.75 17.64 275.6 18.288 275.6 19.032C275.6 19.788 275.75 20.448 276.05 21.012C276.35 21.564 276.752 21.99 277.256 22.29C277.76 22.578 278.318 22.722 278.93 22.722C279.542 22.722 280.1 22.578 280.604 22.29C281.12 21.99 281.528 21.564 281.828 21.012C282.128 20.448 282.278 19.794 282.278 19.05ZM295.45 14.136V24H293.812V22.542C293.5 23.046 293.062 23.442 292.498 23.73C291.946 24.006 291.334 24.144 290.662 24.144C289.894 24.144 289.204 23.988 288.592 23.676C287.98 23.352 287.494 22.872 287.134 22.236C286.786 21.6 286.612 20.826 286.612 19.914V14.136H288.232V19.698C288.232 20.67 288.478 21.42 288.97 21.948C289.462 22.464 290.134 22.722 290.986 22.722C291.862 22.722 292.552 22.452 293.056 21.912C293.56 21.372 293.812 20.586 293.812 19.554V14.136H295.45ZM310.078 13.956C310.846 13.956 311.53 14.118 312.13 14.442C312.73 14.754 313.204 15.228 313.552 15.864C313.9 16.5 314.074 17.274 314.074 18.186V24H312.454V18.42C312.454 17.436 312.208 16.686 311.716 16.17C311.236 15.642 310.582 15.378 309.754 15.378C308.902 15.378 308.224 15.654 307.72 16.206C307.216 16.746 306.964 17.532 306.964 18.564V24H305.344V18.42C305.344 17.436 305.098 16.686 304.606 16.17C304.126 15.642 303.472 15.378 302.644 15.378C301.792 15.378 301.114 15.654 300.61 16.206C300.106 16.746 299.854 17.532 299.854 18.564V24H298.216V14.136H299.854V15.558C300.178 15.042 300.61 14.646 301.15 14.37C301.702 14.094 302.308 13.956 302.968 13.956C303.796 13.956 304.528 14.142 305.164 14.514C305.8 14.886 306.274 15.432 306.586 16.152C306.862 15.456 307.318 14.916 307.954 14.532C308.59 14.148 309.298 13.956 310.078 13.956ZM325.052 24.162C324.296 24.162 323.618 24.036 323.018 23.784C322.418 23.52 321.944 23.16 321.596 22.704C321.248 22.236 321.056 21.702 321.02 21.102H322.712C322.76 21.594 322.988 21.996 323.396 22.308C323.816 22.62 324.362 22.776 325.034 22.776C325.658 22.776 326.15 22.638 326.51 22.362C326.87 22.086 327.05 21.738 327.05 21.318C327.05 20.886 326.858 20.568 326.474 20.364C326.09 20.148 325.496 19.938 324.692 19.734C323.96 19.542 323.36 19.35 322.892 19.158C322.436 18.954 322.04 18.66 321.704 18.276C321.38 17.88 321.218 17.364 321.218 16.728C321.218 16.224 321.368 15.762 321.668 15.342C321.968 14.922 322.394 14.592 322.946 14.352C323.498 14.1 324.128 13.974 324.836 13.974C325.928 13.974 326.81 14.25 327.482 14.802C328.154 15.354 328.514 16.11 328.562 17.07H326.924C326.888 16.554 326.678 16.14 326.294 15.828C325.922 15.516 325.418 15.36 324.782 15.36C324.194 15.36 323.726 15.486 323.378 15.738C323.03 15.99 322.856 16.32 322.856 16.728C322.856 17.052 322.958 17.322 323.162 17.538C323.378 17.742 323.642 17.91 323.954 18.042C324.278 18.162 324.722 18.3 325.286 18.456C325.994 18.648 326.57 18.84 327.014 19.032C327.458 19.212 327.836 19.488 328.148 19.86C328.472 20.232 328.64 20.718 328.652 21.318C328.652 21.858 328.502 22.344 328.202 22.776C327.902 23.208 327.476 23.55 326.924 23.802C326.384 24.042 325.76 24.162 325.052 24.162ZM339.964 18.69C339.964 19.002 339.946 19.332 339.91 19.68H332.026C332.086 20.652 332.416 21.414 333.016 21.966C333.628 22.506 334.366 22.776 335.23 22.776C335.938 22.776 336.526 22.614 336.994 22.29C337.474 21.954 337.81 21.51 338.002 20.958H339.766C339.502 21.906 338.974 22.68 338.182 23.28C337.39 23.868 336.406 24.162 335.23 24.162C334.294 24.162 333.454 23.952 332.71 23.532C331.978 23.112 331.402 22.518 330.982 21.75C330.562 20.97 330.352 20.07 330.352 19.05C330.352 18.03 330.556 17.136 330.964 16.368C331.372 15.6 331.942 15.012 332.674 14.604C333.418 14.184 334.27 13.974 335.23 13.974C336.166 13.974 336.994 14.178 337.714 14.586C338.434 14.994 338.986 15.558 339.37 16.278C339.766 16.986 339.964 17.79 339.964 18.69ZM338.272 18.348C338.272 17.724 338.134 17.19 337.858 16.746C337.582 16.29 337.204 15.948 336.724 15.72C336.256 15.48 335.734 15.36 335.158 15.36C334.33 15.36 333.622 15.624 333.034 16.152C332.458 16.68 332.128 17.412 332.044 18.348H338.272ZM353.988 13.956C354.756 13.956 355.44 14.118 356.04 14.442C356.64 14.754 357.114 15.228 357.462 15.864C357.81 16.5 357.984 17.274 357.984 18.186V24H356.364V18.42C356.364 17.436 356.118 16.686 355.626 16.17C355.146 15.642 354.492 15.378 353.664 15.378C352.812 15.378 352.134 15.654 351.63 16.206C351.126 16.746 350.874 17.532 350.874 18.564V24H349.254V18.42C349.254 17.436 349.008 16.686 348.516 16.17C348.036 15.642 347.382 15.378 346.554 15.378C345.702 15.378 345.024 15.654 344.52 16.206C344.016 16.746 343.764 17.532 343.764 18.564V24H342.126V14.136H343.764V15.558C344.088 15.042 344.52 14.646 345.06 14.37C345.612 14.094 346.218 13.956 346.878 13.956C347.706 13.956 348.438 14.142 349.074 14.514C349.71 14.886 350.184 15.432 350.496 16.152C350.772 15.456 351.228 14.916 351.864 14.532C352.5 14.148 353.208 13.956 353.988 13.956ZM362.309 15.954C362.633 15.39 363.113 14.922 363.749 14.55C364.397 14.166 365.147 13.974 365.999 13.974C366.875 13.974 367.667 14.184 368.375 14.604C369.095 15.024 369.659 15.618 370.067 16.386C370.475 17.142 370.679 18.024 370.679 19.032C370.679 20.028 370.475 20.916 370.067 21.696C369.659 22.476 369.095 23.082 368.375 23.514C367.667 23.946 366.875 24.162 365.999 24.162C365.159 24.162 364.415 23.976 363.767 23.604C363.131 23.22 362.645 22.746 362.309 22.182V28.68H360.671V14.136H362.309V15.954ZM369.005 19.032C369.005 18.288 368.855 17.64 368.555 17.088C368.255 16.536 367.847 16.116 367.331 15.828C366.827 15.54 366.269 15.396 365.657 15.396C365.057 15.396 364.499 15.546 363.983 15.846C363.479 16.134 363.071 16.56 362.759 17.124C362.459 17.676 362.309 18.318 362.309 19.05C362.309 19.794 362.459 20.448 362.759 21.012C363.071 21.564 363.479 21.99 363.983 22.29C364.499 22.578 365.057 22.722 365.657 22.722C366.269 22.722 366.827 22.578 367.331 22.29C367.847 21.99 368.255 21.564 368.555 21.012C368.855 20.448 369.005 19.788 369.005 19.032ZM381.835 18.69C381.835 19.002 381.817 19.332 381.781 19.68H373.897C373.957 20.652 374.287 21.414 374.887 21.966C375.499 22.506 376.237 22.776 377.101 22.776C377.809 22.776 378.397 22.614 378.865 22.29C379.345 21.954 379.681 21.51 379.873 20.958H381.637C381.373 21.906 380.845 22.68 380.053 23.28C379.261 23.868 378.277 24.162 377.101 24.162C376.165 24.162 375.325 23.952 374.581 23.532C373.849 23.112 373.273 22.518 372.853 21.75C372.433 20.97 372.223 20.07 372.223 19.05C372.223 18.03 372.427 17.136 372.835 16.368C373.243 15.6 373.813 15.012 374.545 14.604C375.289 14.184 376.141 13.974 377.101 13.974C378.037 13.974 378.865 14.178 379.585 14.586C380.305 14.994 380.857 15.558 381.241 16.278C381.637 16.986 381.835 17.79 381.835 18.69ZM380.143 18.348C380.143 17.724 380.005 17.19 379.729 16.746C379.453 16.29 379.075 15.948 378.595 15.72C378.127 15.48 377.605 15.36 377.029 15.36C376.201 15.36 375.493 15.624 374.905 16.152C374.329 16.68 373.999 17.412 373.915 18.348H380.143ZM385.635 15.738C385.923 15.174 386.331 14.736 386.859 14.424C387.399 14.112 388.053 13.956 388.821 13.956V15.648H388.389C386.553 15.648 385.635 16.644 385.635 18.636V24H383.997V14.136H385.635V15.738ZM404.511 18.69C404.511 19.002 404.493 19.332 404.457 19.68H396.573C396.633 20.652 396.963 21.414 397.563 21.966C398.175 22.506 398.913 22.776 399.777 22.776C400.485 22.776 401.073 22.614 401.541 22.29C402.021 21.954 402.357 21.51 402.549 20.958H404.313C404.049 21.906 403.521 22.68 402.729 23.28C401.937 23.868 400.953 24.162 399.777 24.162C398.841 24.162 398.001 23.952 397.257 23.532C396.525 23.112 395.949 22.518 395.529 21.75C395.109 20.97 394.899 20.07 394.899 19.05C394.899 18.03 395.103 17.136 395.511 16.368C395.919 15.6 396.489 15.012 397.221 14.604C397.965 14.184 398.817 13.974 399.777 13.974C400.713 13.974 401.541 14.178 402.261 14.586C402.981 14.994 403.533 15.558 403.917 16.278C404.313 16.986 404.511 17.79 404.511 18.69ZM402.819 18.348C402.819 17.724 402.681 17.19 402.405 16.746C402.129 16.29 401.751 15.948 401.271 15.72C400.803 15.48 400.281 15.36 399.705 15.36C398.877 15.36 398.169 15.624 397.581 16.152C397.005 16.68 396.675 17.412 396.591 18.348H402.819ZM408.311 10.68V24H406.673V10.68H408.311ZM411.949 12.534C411.637 12.534 411.373 12.426 411.157 12.21C410.941 11.994 410.833 11.73 410.833 11.418C410.833 11.106 410.941 10.842 411.157 10.626C411.373 10.41 411.637 10.302 411.949 10.302C412.249 10.302 412.501 10.41 412.705 10.626C412.921 10.842 413.029 11.106 413.029 11.418C413.029 11.73 412.921 11.994 412.705 12.21C412.501 12.426 412.249 12.534 411.949 12.534ZM412.741 14.136V24H411.103V14.136H412.741ZM417.53 15.486V21.3C417.53 21.78 417.632 22.122 417.836 22.326C418.04 22.518 418.394 22.614 418.898 22.614H420.104V24H418.628C417.716 24 417.032 23.79 416.576 23.37C416.12 22.95 415.892 22.26 415.892 21.3V15.486H414.614V14.136H415.892V11.652H417.53V14.136H420.104V15.486H417.53Z" fill="#6B625E"/>
</svg>
