<svg width="7" height="11" viewBox="0 0 7 11" fill="none" xmlns="http://www.w3.org/2000/svg">
<path d="M6.15932 4.98326C6.22628 5.05022 6.25977 5.12723 6.25977 5.21429C6.25977 5.30134 6.22628 5.37835 6.15932 5.44531L1.47852 10.1261C1.41155 10.1931 1.33454 10.2266 1.24749 10.2266C1.16044 10.2266 1.08343 10.1931 1.01646 10.1261L0.51423 9.62388C0.447266 9.55692 0.413783 9.47991 0.413783 9.39286C0.413783 9.3058 0.447266 9.22879 0.51423 9.16183L4.46177 5.21429L0.51423 1.26674C0.447266 1.19978 0.413783 1.12277 0.413783 1.03571C0.413783 0.94866 0.447266 0.871651 0.51423 0.804688L1.01646 0.302455C1.08343 0.23549 1.16044 0.202008 1.24749 0.202008C1.33454 0.202008 1.41155 0.23549 1.47852 0.302455L6.15932 4.98326Z" fill="#6B625E"/>
</svg>
