<svg width="220" height="261" viewBox="0 0 220 261" fill="none" xmlns="http://www.w3.org/2000/svg">
<path d="M11.1403 192.083C16.4507 183.404 22.9577 175.936 31.4777 170.305C32.6336 169.542 32.8454 168.578 32.7748 167.33C32.5454 163.28 33.0611 159.299 33.8359 155.332C36.1694 143.372 41.126 132.569 48.0191 122.591C57.9505 108.22 69.3872 95.2601 83.5378 84.8644C84.9649 83.8139 85.5451 82.6369 85.6296 80.8465C85.9119 74.8234 87.6736 69.2738 91.2636 64.3332C97.2808 56.0466 104.155 48.5459 111.722 41.6648C124.91 29.6757 140.255 21.7056 157.483 17.3091C168.947 14.3842 180.62 12.461 192.282 10.5053C195.522 9.96374 198.77 9.46065 202.011 8.93908C202.015 8.72953 202.021 8.5169 202.029 8.30889C200.339 7.7692 198.656 7.20948 196.958 6.69598C195.819 6.35057 194.787 5.82336 193.973 4.95877C192.627 3.52394 193.063 1.8091 194.927 1.18089C195.975 0.826746 197.053 0.968758 198.122 1.11385C202.653 1.73279 207.114 2.73693 211.589 3.644C212.905 3.91241 214.209 4.25941 215.491 4.64954C217.464 5.25401 218.714 6.57942 219.024 8.63958C219.319 10.6196 218.125 11.7826 216.609 12.7545C212.315 15.5147 208.321 18.6863 204.27 21.7793C202.493 23.1364 200.719 24.5027 198.933 25.8474C198.11 26.4681 197.182 26.9286 196.234 26.1934C195.211 25.4012 195.375 24.2934 195.792 23.2503C195.985 22.7619 196.337 22.3291 196.638 21.8869C197.858 20.1091 199.359 18.5717 200.845 17.0235C201.56 16.2795 202.519 15.7342 203.067 14.6912C202.397 14.3413 201.886 14.54 201.384 14.6477C186.411 17.8444 171.353 20.676 156.627 24.9514C148.333 27.3577 140.414 30.6285 132.962 35.0027C118.595 43.4384 107.144 55.0212 97.2039 68.1975C95.2339 70.8056 93.7317 73.7436 93.168 77.5509C94.4858 76.7037 95.4568 76.1108 96.3924 75.4731C103.419 70.6859 111.097 67.3102 119.274 65.0764C127.649 62.7841 135.878 62.9863 143.963 66.5784C152.045 70.1689 153.265 78.975 150.492 84.9204C148.679 88.8044 146.108 92.0904 142.741 94.7244C133.954 101.593 123.979 104.965 112.791 104.72C103.156 104.508 95.3262 100.59 89.1372 93.2787C87.5097 91.3569 87.3971 91.3584 85.3028 93.042C76.7625 99.9105 69.0574 107.593 62.3049 116.24C57.3961 122.524 52.7142 128.956 48.8116 135.904C44.2455 144.026 41.6095 152.823 40.1939 162.003C40.079 162.758 39.7883 163.579 40.3165 164.328C41.128 164.587 41.7074 164.068 42.307 163.74C45.2188 162.149 48.2372 160.785 51.3066 159.542C56.7856 157.32 62.4864 156.283 68.3986 156.891C78.8687 157.963 83.8709 164.524 82.5954 174.967C81.118 187.088 68.2551 195.894 57.2774 193.175C51.7685 191.813 46.8093 189.575 42.6087 185.717C39.8763 183.213 37.5692 180.374 35.7214 177.172C35.0632 176.027 34.3891 175.917 33.3766 176.709C31.1143 178.466 28.8907 180.262 26.7952 182.219C22.3022 186.412 18.8834 191.426 15.6654 196.603C10.441 205.001 6.85826 214.018 5.93688 223.907C4.52583 239.068 13.9708 254.058 30.1207 257.678C31.5291 257.993 32.9206 258.28 34.3544 257.787C35.0528 257.547 35.8299 257.381 36.1301 258.339C36.4009 259.195 35.7721 259.666 35.1541 260.046C33.6158 260.995 31.9054 260.969 30.1979 260.782C25.0137 260.221 20.1846 258.494 15.968 255.503C4.10683 247.079 -1.02703 235.455 0.543685 221.078C1.68346 210.59 5.64199 201.067 11.1403 192.083ZM94.0124 88.7452C95.5556 91.1754 99.2417 94.2102 103.143 96.1587C104.97 97.2331 107.302 97.8438 109.719 98.131C120.466 99.414 130.138 96.7337 138.652 90.0948C141.657 87.7534 144.025 84.8357 145.057 81.0778C146.133 77.1721 144.879 74.3937 141.167 72.7703C135.293 70.2019 129.197 70.0525 123.022 71.5149C114.463 73.5421 106.729 77.36 99.521 82.3105C97.8256 83.4734 96.1226 84.6286 94.486 85.867C93.082 86.9253 93.0731 87.2673 94.0124 88.7452ZM41.8532 173.913C44.4415 178.674 48.2114 182.275 53.0509 185.039C55.2433 185.837 57.5684 186.748 60.0551 187.182C66.395 188.285 75.0091 182.72 76.1729 174.593C77.179 167.584 74.8144 164.297 67.7976 163.39C64.0956 162.912 60.4841 163.41 56.9286 164.437C51.9131 165.886 47.3087 168.272 42.7476 170.74C40.9333 171.725 40.855 172.074 41.8532 173.913Z" fill="#F4ECE0"/>
</svg>
