<svg width="27" height="32" viewBox="0 0 27 32" fill="none" xmlns="http://www.w3.org/2000/svg">
<path d="M25.5455 13.2727C25.5455 22.8182 13.2727 31 13.2727 31C13.2727 31 1 22.8182 1 13.2727C1 10.0178 2.29302 6.89618 4.5946 4.5946C6.89618 2.29302 10.0178 1 13.2727 1C16.5277 1 19.6493 2.29302 21.9509 4.5946C24.2524 6.89618 25.5455 10.0178 25.5455 13.2727Z" stroke="white" stroke-width="2" stroke-linecap="round" stroke-linejoin="round"/>
<path d="M13.2725 17.3635C15.5319 17.3635 17.3635 15.5319 17.3635 13.2725C17.3635 11.0132 15.5319 9.18164 13.2725 9.18164C11.0132 9.18164 9.18164 11.0132 9.18164 13.2725C9.18164 15.5319 11.0132 17.3635 13.2725 17.3635Z" stroke="white" stroke-width="2" stroke-linecap="round" stroke-linejoin="round"/>
</svg>
