<svg width="37" height="32" viewBox="0 0 37 32" fill="none" xmlns="http://www.w3.org/2000/svg">
<path d="M26 30V26.8889C26 25.2387 25.3679 23.656 24.2426 22.4891C23.1174 21.3222 21.5913 20.6667 20 20.6667H8C6.4087 20.6667 4.88258 21.3222 3.75736 22.4891C2.63214 23.656 2 25.2387 2 26.8889V30" stroke="white" stroke-width="3" stroke-linecap="round" stroke-linejoin="round"/>
<path d="M14 14.4444C17.3137 14.4444 20 11.6587 20 8.22222C20 4.78578 17.3137 2 14 2C10.6863 2 8 4.78578 8 8.22222C8 11.6587 10.6863 14.4444 14 14.4444Z" stroke="white" stroke-width="3" stroke-linecap="round" stroke-linejoin="round"/>
<path d="M35 30V26.8889C34.999 25.5102 34.5565 24.171 33.742 23.0814C32.9276 21.9918 31.7872 21.2136 30.5 20.8689" stroke="white" stroke-width="3" stroke-linecap="round" stroke-linejoin="round"/>
<path d="M24.5 2.20221C25.7906 2.5449 26.9346 3.3233 27.7515 4.41469C28.5684 5.50608 29.0118 6.84839 29.0118 8.22999C29.0118 9.61159 28.5684 10.9539 27.7515 12.0453C26.9346 13.1367 25.7906 13.9151 24.5 14.2578" stroke="white" stroke-width="3" stroke-linecap="round" stroke-linejoin="round"/>
</svg>
