<svg width="33" height="33" viewBox="0 0 33 33" fill="none" xmlns="http://www.w3.org/2000/svg">
<path d="M31.0113 23.5145V28.0415C31.013 28.4618 30.9269 28.8778 30.7585 29.2628C30.5902 29.6479 30.3432 29.9936 30.0336 30.2777C29.7239 30.5618 29.3583 30.7781 28.9602 30.9127C28.562 31.0474 28.1402 31.0974 27.7216 31.0595C23.0782 30.555 18.6178 28.9683 14.6989 26.4269C11.0529 24.1101 7.96173 21.0189 5.6449 17.3729C3.09464 13.4362 1.50757 8.95411 1.01225 4.28978C0.974539 3.87249 1.02413 3.45192 1.15787 3.05484C1.2916 2.65777 1.50655 2.29289 1.78903 1.98345C2.07151 1.674 2.41533 1.42676 2.7986 1.25746C3.18186 1.08817 3.59618 1.00054 4.01517 1.00015H8.54219C9.27452 0.992939 9.98448 1.25227 10.5397 1.7298C11.095 2.20733 11.4577 2.87048 11.5602 3.59564C11.7513 5.04438 12.1056 6.46686 12.6165 7.83594C12.8195 8.37605 12.8635 8.96304 12.7431 9.52736C12.6228 10.0917 12.3432 10.6097 11.9374 11.0199L10.021 12.9364C12.1692 16.7142 15.2972 19.8423 19.075 21.9904L20.9915 20.074C21.4018 19.6683 21.9198 19.3887 22.4841 19.2683C23.0484 19.148 23.6354 19.1919 24.1755 19.3949C25.5446 19.9058 26.967 20.2602 28.4158 20.4512C29.1488 20.5546 29.8183 20.9239 30.2968 21.4887C30.7754 22.0535 31.0296 22.7745 31.0113 23.5145Z" stroke="white" stroke-width="2" stroke-linecap="round" stroke-linejoin="round"/>
</svg>
