<svg width="220" height="261" viewBox="0 0 220 261" fill="none" xmlns="http://www.w3.org/2000/svg">
<path d="M208.393 191.936C203.083 183.257 196.576 175.789 188.056 170.158C186.9 169.395 186.688 168.431 186.759 167.183C186.988 163.133 186.472 159.152 185.698 155.185C183.364 143.225 178.407 132.422 171.514 122.444C161.583 108.073 150.146 95.1131 135.996 84.7175C134.569 83.667 133.988 82.4899 133.904 80.6995C133.622 74.6765 131.86 69.1268 128.27 64.1863C122.253 55.8996 115.379 48.3989 107.811 41.5179C94.6233 29.5287 79.278 21.5586 62.0506 17.1621C50.5867 14.2372 38.9135 12.314 27.2512 10.3584C24.0114 9.81676 20.7639 9.31368 17.5225 8.79211C17.5181 8.58256 17.5122 8.36993 17.5047 8.16192C19.194 7.62223 20.8772 7.06251 22.5758 6.54901C23.7144 6.2036 24.7467 5.67639 25.5604 4.81179C26.9067 3.37696 26.4705 1.66213 24.6065 1.03391C23.5581 0.679773 22.4799 0.821785 21.411 0.966876C16.8806 1.58582 12.4193 2.58996 7.94419 3.49702C6.62834 3.76544 5.32475 4.11244 4.04271 4.50257C2.06951 5.10704 0.818893 6.43245 0.509863 8.4926C0.214796 10.4726 1.40887 11.6357 2.92395 12.6076C7.21792 15.3677 11.2123 18.5393 15.2638 21.6323C17.0406 22.9894 18.8144 24.3557 20.6005 25.7004C21.4235 26.3212 22.3515 26.7816 23.2992 26.0464C24.3225 25.2542 24.1587 24.1464 23.7418 23.1034C23.5479 22.615 23.1967 22.1821 22.8949 21.7399C21.6752 19.9621 20.1746 18.4247 18.6879 16.8765C17.9731 16.1325 17.0143 15.5873 16.4663 14.5443C17.136 14.1943 17.6479 14.393 18.149 14.5007C33.1229 17.6975 48.1804 20.529 62.9064 24.8044C71.1999 27.2107 79.1193 30.4816 86.5717 34.8557C100.939 43.2914 112.389 54.8742 122.33 68.0505C124.299 70.6587 125.802 73.5967 126.365 77.4039C125.048 76.5568 124.077 75.9638 123.141 75.3261C116.115 70.5389 108.436 67.1632 100.26 64.9294C91.8842 62.6371 83.6559 62.8394 75.5706 66.4314C67.4884 70.0219 66.2687 78.828 69.0418 84.7734C70.8546 88.6574 73.4253 91.9434 76.7925 94.5774C85.5796 101.446 95.5547 104.818 106.743 104.573C116.378 104.361 124.207 100.443 130.396 93.1317C132.024 91.2099 132.136 91.2114 134.231 92.895C142.771 99.7636 150.476 107.446 157.228 116.093C162.137 122.377 166.819 128.809 170.722 135.757C175.288 143.879 177.924 152.676 179.34 161.856C179.454 162.611 179.745 163.433 179.217 164.181C178.405 164.441 177.826 163.921 177.226 163.593C174.315 162.002 171.296 160.638 168.227 159.395C162.748 157.173 157.047 156.136 151.135 156.744C140.665 157.816 135.662 164.377 136.938 174.82C138.415 186.941 151.278 195.747 162.256 193.028C167.765 191.666 172.724 189.428 176.925 185.57C179.657 183.066 181.964 180.227 183.812 177.025C184.47 175.88 185.144 175.77 186.157 176.562C188.419 178.319 190.643 180.116 192.738 182.072C197.231 186.265 200.65 191.28 203.868 196.456C209.092 204.854 212.675 213.871 213.597 223.76C215.008 238.922 205.563 253.911 189.413 257.532C188.004 257.846 186.613 258.133 185.179 257.64C184.481 257.4 183.703 257.234 183.403 258.192C183.133 259.048 183.761 259.519 184.379 259.899C185.918 260.848 187.628 260.822 189.336 260.635C194.52 260.074 199.349 258.347 203.565 255.356C215.427 246.932 220.56 235.308 218.99 220.931C217.85 210.443 213.891 200.92 208.393 191.936ZM125.521 88.5982C123.978 91.0285 120.292 94.0632 116.391 96.0118C114.564 97.0861 112.231 97.6969 109.814 97.984C99.0676 99.267 89.3955 96.5867 80.8812 89.9478C77.8762 87.6064 75.5087 84.6887 74.4761 80.9308C73.4005 77.0251 74.6542 74.2467 78.3666 72.6233C84.2407 70.0549 90.336 69.9056 96.5113 71.3679C105.07 73.3951 112.804 77.213 120.012 82.1635C121.708 83.3264 123.411 84.4816 125.047 85.7201C126.451 86.7783 126.46 87.1203 125.521 88.5982ZM177.68 173.766C175.092 178.528 171.322 182.128 166.482 184.892C164.29 185.69 161.965 186.601 159.478 187.035C153.138 188.138 144.524 182.573 143.36 174.446C142.354 167.437 144.719 164.15 151.736 163.243C155.438 162.765 159.049 163.263 162.605 164.29C167.62 165.739 172.225 168.125 176.786 170.593C178.6 171.578 178.678 171.927 177.68 173.766Z" fill="#F4ECE0"/>
</svg>
