<svg width="37" height="37" viewBox="0 0 37 37" fill="none" xmlns="http://www.w3.org/2000/svg">
<path d="M18.5 23C20.9853 23 23 20.9853 23 18.5C23 16.0147 20.9853 14 18.5 14C16.0147 14 14 16.0147 14 18.5C14 20.9853 16.0147 23 18.5 23Z" stroke="white" stroke-width="3" stroke-linecap="round" stroke-linejoin="round"/>
<path d="M29.6 23C29.4003 23.4524 29.3408 23.9543 29.429 24.4409C29.5172 24.9275 29.7492 25.3765 30.095 25.73L30.185 25.82C30.4639 26.0986 30.6852 26.4295 30.8362 26.7937C30.9872 27.1579 31.0649 27.5483 31.0649 27.9425C31.0649 28.3367 30.9872 28.7271 30.8362 29.0913C30.6852 29.4555 30.4639 29.7864 30.185 30.065C29.9064 30.3439 29.5755 30.5652 29.2113 30.7162C28.8471 30.8672 28.4567 30.9449 28.0625 30.9449C27.6683 30.9449 27.2779 30.8672 26.9137 30.7162C26.5495 30.5652 26.2186 30.3439 25.94 30.065L25.85 29.975C25.4965 29.6292 25.0475 29.3972 24.5609 29.309C24.0743 29.2208 23.5724 29.2803 23.12 29.48C22.6763 29.6701 22.298 29.9859 22.0315 30.3883C21.7649 30.7907 21.6219 31.2623 21.62 31.745V32C21.62 32.7956 21.3039 33.5587 20.7413 34.1213C20.1787 34.6839 19.4156 35 18.62 35C17.8244 35 17.0613 34.6839 16.4987 34.1213C15.9361 33.5587 15.62 32.7956 15.62 32V31.865C15.6084 31.3685 15.4477 30.887 15.1588 30.4831C14.8699 30.0791 14.4661 29.7714 14 29.6C13.5476 29.4003 13.0457 29.3408 12.5591 29.429C12.0725 29.5172 11.6235 29.7492 11.27 30.095L11.18 30.185C10.9014 30.4639 10.5705 30.6852 10.2063 30.8362C9.84213 30.9872 9.45175 31.0649 9.0575 31.0649C8.66325 31.0649 8.27287 30.9872 7.90868 30.8362C7.54448 30.6852 7.21362 30.4639 6.935 30.185C6.65607 29.9064 6.43479 29.5755 6.28382 29.2113C6.13285 28.8471 6.05514 28.4567 6.05514 28.0625C6.05514 27.6683 6.13285 27.2779 6.28382 26.9137C6.43479 26.5495 6.65607 26.2186 6.935 25.94L7.025 25.85C7.37081 25.4965 7.60278 25.0475 7.69101 24.5609C7.77924 24.0743 7.71967 23.5724 7.52 23.12C7.32986 22.6763 7.01413 22.298 6.6117 22.0315C6.20926 21.7649 5.73768 21.6219 5.255 21.62H5C4.20435 21.62 3.44129 21.3039 2.87868 20.7413C2.31607 20.1787 2 19.4156 2 18.62C2 17.8244 2.31607 17.0613 2.87868 16.4987C3.44129 15.9361 4.20435 15.62 5 15.62H5.135C5.63149 15.6084 6.11301 15.4477 6.51695 15.1588C6.92089 14.8699 7.22857 14.4661 7.4 14C7.59967 13.5476 7.65924 13.0457 7.57101 12.5591C7.48278 12.0725 7.25081 11.6235 6.905 11.27L6.815 11.18C6.53607 10.9014 6.31479 10.5705 6.16382 10.2063C6.01285 9.84213 5.93514 9.45175 5.93514 9.0575C5.93514 8.66325 6.01285 8.27287 6.16382 7.90868C6.31479 7.54448 6.53607 7.21362 6.815 6.935C7.09362 6.65607 7.42448 6.43479 7.78868 6.28382C8.15287 6.13285 8.54325 6.05514 8.9375 6.05514C9.33175 6.05514 9.72213 6.13285 10.0863 6.28382C10.4505 6.43479 10.7814 6.65607 11.06 6.935L11.15 7.025C11.5035 7.37081 11.9525 7.60278 12.4391 7.69101C12.9257 7.77924 13.4276 7.71967 13.88 7.52H14C14.4437 7.32986 14.822 7.01413 15.0885 6.6117C15.3551 6.20926 15.4981 5.73768 15.5 5.255V5C15.5 4.20435 15.8161 3.44129 16.3787 2.87868C16.9413 2.31607 17.7044 2 18.5 2C19.2956 2 20.0587 2.31607 20.6213 2.87868C21.1839 3.44129 21.5 4.20435 21.5 5V5.135C21.5019 5.61768 21.6449 6.08926 21.9115 6.4917C22.178 6.89413 22.5563 7.20986 23 7.4C23.4524 7.59967 23.9543 7.65924 24.4409 7.57101C24.9275 7.48278 25.3765 7.25081 25.73 6.905L25.82 6.815C26.0986 6.53607 26.4295 6.31479 26.7937 6.16382C27.1579 6.01285 27.5483 5.93514 27.9425 5.93514C28.3367 5.93514 28.7271 6.01285 29.0913 6.16382C29.4555 6.31479 29.7864 6.53607 30.065 6.815C30.3439 7.09362 30.5652 7.42448 30.7162 7.78868C30.8672 8.15287 30.9449 8.54325 30.9449 8.9375C30.9449 9.33175 30.8672 9.72213 30.7162 10.0863C30.5652 10.4505 30.3439 10.7814 30.065 11.06L29.975 11.15C29.6292 11.5035 29.3972 11.9525 29.309 12.4391C29.2208 12.9257 29.2803 13.4276 29.48 13.88V14C29.6701 14.4437 29.9859 14.822 30.3883 15.0885C30.7907 15.3551 31.2623 15.4981 31.745 15.5H32C32.7956 15.5 33.5587 15.8161 34.1213 16.3787C34.6839 16.9413 35 17.7044 35 18.5C35 19.2956 34.6839 20.0587 34.1213 20.6213C33.5587 21.1839 32.7956 21.5 32 21.5H31.865C31.3823 21.5019 30.9107 21.6449 30.5083 21.9115C30.1059 22.178 29.7901 22.5563 29.6 23V23Z" stroke="white" stroke-width="3" stroke-linecap="round" stroke-linejoin="round"/>
</svg>
