<svg width="145" height="30" viewBox="0 0 145 30" fill="none" xmlns="http://www.w3.org/2000/svg">
<path d="M9.10547 6.88281L6.82031 11.5586L1.65234 12.2969C0.738281 12.4375 0.386719 13.5625 1.05469 14.2305L4.74609 17.8516L3.86719 22.9492C3.72656 23.8633 4.71094 24.5664 5.51953 24.1445L10.125 21.7188L14.6953 24.1445C15.5039 24.5664 16.4883 23.8633 16.3477 22.9492L15.4688 17.8516L19.1602 14.2305C19.8281 13.5625 19.4766 12.4375 18.5625 12.2969L13.4297 11.5586L11.1094 6.88281C10.7227 6.07422 9.52734 6.03906 9.10547 6.88281Z" fill="#FF733B"/>
<path d="M40.1055 6.88281L37.8203 11.5586L32.6523 12.2969C31.7383 12.4375 31.3867 13.5625 32.0547 14.2305L35.7461 17.8516L34.8672 22.9492C34.7266 23.8633 35.7109 24.5664 36.5195 24.1445L41.125 21.7188L45.6953 24.1445C46.5039 24.5664 47.4883 23.8633 47.3477 22.9492L46.4688 17.8516L50.1602 14.2305C50.8281 13.5625 50.4766 12.4375 49.5625 12.2969L44.4297 11.5586L42.1094 6.88281C41.7227 6.07422 40.5273 6.03906 40.1055 6.88281Z" fill="#FF733B"/>
<path d="M71.1055 6.88281L68.8203 11.5586L63.6523 12.2969C62.7383 12.4375 62.3867 13.5625 63.0547 14.2305L66.7461 17.8516L65.8672 22.9492C65.7266 23.8633 66.7109 24.5664 67.5195 24.1445L72.125 21.7188L76.6953 24.1445C77.5039 24.5664 78.4883 23.8633 78.3477 22.9492L77.4688 17.8516L81.1602 14.2305C81.8281 13.5625 81.4766 12.4375 80.5625 12.2969L75.4297 11.5586L73.1094 6.88281C72.7227 6.07422 71.5273 6.03906 71.1055 6.88281Z" fill="#FF733B"/>
<path d="M102.105 6.88281L99.8203 11.5586L94.6523 12.2969C93.7383 12.4375 93.3867 13.5625 94.0547 14.2305L97.7461 17.8516L96.8672 22.9492C96.7266 23.8633 97.7109 24.5664 98.5195 24.1445L103.125 21.7188L107.695 24.1445C108.504 24.5664 109.488 23.8633 109.348 22.9492L108.469 17.8516L112.16 14.2305C112.828 13.5625 112.477 12.4375 111.562 12.2969L106.43 11.5586L104.109 6.88281C103.723 6.07422 102.527 6.03906 102.105 6.88281Z" fill="#FF733B"/>
<path d="M134.125 6.25C133.703 6.25 133.316 6.46094 133.105 6.88281L130.82 11.5586L125.652 12.2969C124.738 12.4375 124.387 13.5625 125.055 14.1953L128.746 17.8164L127.867 22.9492C127.727 23.8633 128.676 24.5664 129.52 24.1445L134.125 21.7188V6.25Z" fill="#FF733B"/>
</svg>
