<svg width="16" height="15" viewBox="0 0 16 15" fill="none" xmlns="http://www.w3.org/2000/svg">
<path d="M15.8398 3.66406C15.9453 1.625 15.1719 0.570312 13.5547 0.535156C11.375 0.464844 9.89844 1.69531 9.125 4.22656C10.1094 3.80469 11.5156 3.69922 11.375 5.31641C11.3047 5.84375 10.9531 6.65234 10.2852 7.67188C8.45703 10.5898 8 9.60547 7.01562 3.24219C6.73438 1.44922 5.96094 0.605469 4.73047 0.710938C3.64062 0.816406 1.91797 2.57422 0.125 4.19141L0.863281 5.14062C1.56641 4.64844 1.95312 4.40234 2.09375 4.40234C3.11328 4.40234 3.64062 7.03906 4.87109 11.6094C5.50391 13.2969 6.27734 14.1406 7.19141 14.1406C8.70312 14.1406 10.4961 12.7344 12.6406 9.95703C14.7148 7.28516 15.7695 5.21094 15.8398 3.66406Z" fill="#FF733B"/>
</svg>
