<svg width="140" height="153" viewBox="0 0 140 153" fill="none" xmlns="http://www.w3.org/2000/svg">
<g filter="url(#filter0_d_176_2427)">
<rect x="30" width="80" height="80" rx="8" fill="#FFE6E2"/>
<rect x="32" y="2" width="76" height="76" rx="6" stroke="white" stroke-width="4"/>
</g>
<path d="M81.6667 59H58.3333C57.0453 59 56 57.8241 56 56.3753V54.6247C56 53.1759 57.0453 52 58.3333 52H81.6667C82.9547 52 84 53.1759 84 54.6247V56.3753C84 57.8241 82.957 59 81.6667 59Z" fill="#FF391A"/>
<path d="M81.6667 50H58.3333C57.0453 50 56 48.8241 56 47.3753V45.6247C56 44.1759 57.0453 43 58.3333 43H81.6667C82.9547 43 84 44.1759 84 45.6247V47.3753C84 48.8241 82.957 50 81.6667 50Z" fill="#FFA394"/>
<path d="M81.6667 33.6659H77.777V28.9159C77.777 24.5506 74.2887 21 70 21C65.7113 21 62.223 24.5506 62.223 28.9159V33.6659H58.3333C57.0453 33.6659 56 34.7299 56 36.0409V37.625C56 38.936 57.0453 40 58.3333 40H81.6667C82.9547 40 84 38.936 84 37.625V36.0409C84 34.7299 82.957 33.6659 81.6667 33.6659ZM65.3333 28.9159C65.3333 26.2963 67.4263 24.1659 70 24.1659C72.5737 24.1659 74.6667 26.2963 74.6667 28.9159V33.6659H65.3333V28.9159Z" fill="#FF391A"/>
<defs>
<filter id="filter0_d_176_2427" x="0" y="0" width="140" height="153" filterUnits="userSpaceOnUse" color-interpolation-filters="sRGB">
<feFlood flood-opacity="0" result="BackgroundImageFix"/>
<feColorMatrix in="SourceAlpha" type="matrix" values="0 0 0 0 0 0 0 0 0 0 0 0 0 0 0 0 0 0 127 0" result="hardAlpha"/>
<feOffset dy="43"/>
<feGaussianBlur stdDeviation="15"/>
<feComposite in2="hardAlpha" operator="out"/>
<feColorMatrix type="matrix" values="0 0 0 0 0.654167 0 0 0 0 0.0910146 0 0 0 0 0 0 0 0 0.08 0"/>
<feBlend mode="normal" in2="BackgroundImageFix" result="effect1_dropShadow_176_2427"/>
<feBlend mode="normal" in="SourceGraphic" in2="effect1_dropShadow_176_2427" result="shape"/>
</filter>
</defs>
</svg>
