<svg width="140" height="153" viewBox="0 0 140 153" fill="none" xmlns="http://www.w3.org/2000/svg">
<g filter="url(#filter0_d_176_2407)">
<rect x="30" width="80" height="80" rx="8" fill="#E2FAE3"/>
<rect x="32" y="2" width="76" height="76" rx="6" stroke="white" stroke-width="4"/>
</g>
<path d="M88.1727 24.8657L79.8666 22.0636C79.6198 21.9788 79.3517 21.9788 79.1025 22.0636L70.7964 24.8657C70.3147 25.0282 69.9919 25.4756 69.9919 25.9819V32.2902C69.9919 39.9902 78.6516 43.7295 79.0218 43.8873C79.1713 43.9485 79.3279 43.9815 79.4845 43.9815C79.6412 43.9815 79.8002 43.9509 79.9473 43.8873C80.3175 43.7295 88.9772 39.9879 88.9772 32.2879V25.9819C88.9772 25.4756 88.6544 25.0282 88.1727 24.8657ZM84.6841 30.8185L80.3341 36.3121C80.0683 36.6488 79.6744 36.8631 79.2449 36.9055C79.195 36.9102 79.1404 36.9126 79.0906 36.9126C78.7156 36.9126 78.3478 36.7807 78.0607 36.5358L75.2912 34.1811C74.6267 33.6159 74.5484 32.6269 75.1203 31.9676C75.6899 31.3106 76.689 31.2329 77.3511 31.7981L78.8675 33.0861L82.1994 28.8805C82.7381 28.2 83.7325 28.0799 84.4207 28.6168C85.1042 29.1513 85.2252 30.138 84.6841 30.8185Z" fill="#91F295"/>
<path d="M51.7766 41C51.3467 41.0095 51 41.3609 51 41.7931V56.4332C51 56.6517 51.1781 56.8298 51.3966 56.8298H55.1512C55.5051 56.8298 55.8162 56.5947 55.9136 56.2551L59.4165 43.909C59.6421 43.1111 59.2146 42.2728 58.4357 41.9902C56.9989 41.4654 54.7998 40.9501 51.7766 41Z" fill="#1CE524"/>
<path d="M85.832 49.7056C82.6664 49.7056 76.3326 53.7141 73.1646 53.7141C69.9989 53.7141 66.4366 51.2896 66.4366 51.2896C66.4366 51.2896 70.7019 52.0803 73.1646 52.0803C75.6297 52.0803 76.3303 51.2397 76.3303 50.1022C76.3303 47.3309 71.6233 46.9011 69.2437 46.5402C66.9068 45.2388 65.6933 44.2106 61.8223 43.8829C61.7985 44.1085 61.7629 44.3317 61.7012 44.5573L58.5212 55.7659C62.1239 57.4044 68.327 60 71.5829 60C76.3326 60 89.0001 53.6667 89.0001 52.0851C88.9977 50.4964 87.4161 49.7056 85.832 49.7056Z" fill="#1CE524"/>
<defs>
<filter id="filter0_d_176_2407" x="0" y="0" width="140" height="153" filterUnits="userSpaceOnUse" color-interpolation-filters="sRGB">
<feFlood flood-opacity="0" result="BackgroundImageFix"/>
<feColorMatrix in="SourceAlpha" type="matrix" values="0 0 0 0 0 0 0 0 0 0 0 0 0 0 0 0 0 0 127 0" result="hardAlpha"/>
<feOffset dy="43"/>
<feGaussianBlur stdDeviation="15"/>
<feComposite in2="hardAlpha" operator="out"/>
<feColorMatrix type="matrix" values="0 0 0 0 0 0 0 0 0 0.583333 0 0 0 0 0.0214912 0 0 0 0.08 0"/>
<feBlend mode="normal" in2="BackgroundImageFix" result="effect1_dropShadow_176_2407"/>
<feBlend mode="normal" in="SourceGraphic" in2="effect1_dropShadow_176_2407" result="shape"/>
</filter>
</defs>
</svg>
