<svg width="140" height="153" viewBox="0 0 140 153" fill="none" xmlns="http://www.w3.org/2000/svg">
<g filter="url(#filter0_d_69_583)">
<rect x="30" width="80" height="80" rx="8" fill="#F4ECE0"/>
<rect x="32" y="2" width="76" height="76" rx="6" stroke="white" stroke-width="4"/>
</g>
<path d="M78.6949 23.8904L70.3824 21.0641C70.1354 20.9786 69.867 20.9786 69.6176 21.0641L61.3051 23.8904C60.823 24.0542 60.5 24.5055 60.5 25.0161V31.3787C60.5 39.145 69.1664 42.9165 69.5369 43.0756C69.6865 43.1374 69.8433 43.1706 70 43.1706C70.1567 43.1706 70.3159 43.1397 70.4631 43.0756C70.8336 42.9165 79.5 39.1426 79.5 31.3764V25.0161C79.5 24.5055 79.177 24.0542 78.6949 23.8904ZM75.2036 29.8944L70.8502 35.4352C70.5842 35.7749 70.19 35.991 69.7601 36.0337C69.7103 36.0385 69.6556 36.0409 69.6057 36.0409C69.2305 36.0409 68.8624 35.9079 68.575 35.6609L65.8034 33.2859C65.1384 32.7159 65.06 31.7184 65.6324 31.0534C66.2024 30.3907 67.2023 30.3124 67.8625 30.8824L69.3801 32.1815L72.7146 27.9397C73.2537 27.2534 74.2489 27.1322 74.9376 27.6737C75.624 28.2129 75.7451 29.208 75.2036 29.8944Z" fill="#FD907E"/>
<path d="M86.2308 27.3341H82.6682V30.5H85.8341V47.9159H54.1659V30.5H57.3318V27.3341H53.7693C52.2493 27.3341 51 28.5834 51 30.1034V51.4784C51 52.9984 52.2493 54.25 53.7693 54.25H65.896C65.7108 55.0432 65.2167 56.3305 63.8986 57.6486C63.673 57.8742 63.6041 58.2162 63.7276 58.5107C63.8488 58.8076 64.1385 59 64.4591 59H75.5432C75.8639 59 76.1536 58.8076 76.2747 58.5107C76.3959 58.2139 76.3294 57.8742 76.1037 57.6486C74.788 56.3329 74.2821 55.0456 74.085 54.25H86.2308C87.7507 54.25 89 52.9984 89 51.4784V30.1034C89 28.5834 87.7507 27.3341 86.2308 27.3341Z" fill="#FF733B"/>
<defs>
<filter id="filter0_d_69_583" x="0" y="0" width="140" height="153" filterUnits="userSpaceOnUse" color-interpolation-filters="sRGB">
<feFlood flood-opacity="0" result="BackgroundImageFix"/>
<feColorMatrix in="SourceAlpha" type="matrix" values="0 0 0 0 0 0 0 0 0 0 0 0 0 0 0 0 0 0 127 0" result="hardAlpha"/>
<feOffset dy="43"/>
<feGaussianBlur stdDeviation="15"/>
<feComposite in2="hardAlpha" operator="out"/>
<feColorMatrix type="matrix" values="0 0 0 0 0.6875 0 0 0 0 0.0997409 0 0 0 0 0 0 0 0 0.08 0"/>
<feBlend mode="normal" in2="BackgroundImageFix" result="effect1_dropShadow_69_583"/>
<feBlend mode="normal" in="SourceGraphic" in2="effect1_dropShadow_69_583" result="shape"/>
</filter>
</defs>
</svg>
