<svg width="149" height="45" viewBox="0 0 149 45" fill="none" xmlns="http://www.w3.org/2000/svg">
<path d="M31.7316 4.45007C32.1737 3.21372 32.9956 2.14531 34.0822 1.39467C35.1688 0.644042 36.4656 0.248833 37.7906 0.264479C40.8087 0.214038 42.6515 1.82715 43.8217 4.5371C43.9796 4.21566 44.0955 3.97632 44.2214 3.73796C44.7638 2.76927 45.5389 1.94765 46.4782 1.34567C47.4175 0.743691 48.4921 0.379865 49.6071 0.286316C50.7222 0.192767 51.8433 0.372371 52.8716 0.809279C53.8999 1.24619 54.8036 1.92696 55.503 2.79146C56.2393 3.81772 56.6394 5.04294 56.6493 6.30152C56.7052 7.51012 56.6773 8.72267 56.6773 9.93126V24.5976C56.6773 25.5253 56.4264 25.7785 55.493 25.7844C54.1559 25.7891 52.8188 25.7891 51.4817 25.7844C50.6322 25.7844 50.3534 25.5045 50.3534 24.65C50.3534 19.7794 50.3534 14.9091 50.3534 10.0391C50.3621 9.48747 50.3287 8.93601 50.2535 8.38938C50.2402 7.92463 50.0817 7.47536 49.7999 7.10342C49.518 6.73148 49.1266 6.45513 48.6795 6.31241C48.1697 6.13232 47.6207 6.08972 47.0887 6.18896C46.5568 6.2882 46.0611 6.52571 45.6525 6.87714C45.2078 7.31209 44.8663 7.83941 44.6526 8.42096C44.439 9.00252 44.3586 9.62378 44.4173 10.2398C44.3664 12.5927 44.3893 14.9447 44.3893 17.2976C44.3893 19.7237 44.3893 22.1498 44.3893 24.5758C44.3893 25.4858 44.1065 25.7755 43.2011 25.7795C41.864 25.7841 40.5269 25.7841 39.1897 25.7795C38.2983 25.7795 38.0385 25.5085 38.0385 24.6174C38.0385 19.7474 38.0475 14.8764 38.0245 10.0064C38.0104 9.34604 37.912 8.69007 37.7317 8.05409C37.6384 7.51245 37.3557 7.02051 36.9329 6.66434C36.5102 6.30816 35.9744 6.11041 35.4192 6.1057C34.8335 6.03173 34.2395 6.15221 33.7304 6.44826C33.2213 6.7443 32.8259 7.19918 32.6061 7.74156C32.1675 8.91625 31.9764 10.1673 32.0444 11.4178C32.0351 15.8104 32.0351 20.203 32.0444 24.5956C32.0444 25.5144 31.7846 25.7765 30.8512 25.7765C29.5141 25.7811 28.177 25.7811 26.8398 25.7765C25.9764 25.7765 25.7116 25.5055 25.7116 24.651V1.93001C25.7116 1.02505 25.9624 0.771852 26.8488 0.771852C28.148 0.771852 29.4471 0.771852 30.7463 0.771852C31.4458 0.771852 31.7166 1.0478 31.7216 1.74111C31.7316 2.653 31.7316 3.54906 31.7316 4.45007Z" fill="#D4AC9E"/>
<path d="M13.8703 9.89868C13.9173 9.07493 13.911 8.24905 13.8513 7.4261C13.8165 7.03839 13.7005 6.6621 13.5105 6.32123C13.3206 5.98037 13.0611 5.68241 12.7484 5.44634C12.4356 5.21027 12.0766 5.04127 11.6943 4.95012C11.3119 4.85897 10.9145 4.84767 10.5275 4.91693C9.71808 4.90234 8.92971 5.17276 8.30301 5.67997C7.6763 6.18717 7.25201 6.89818 7.10577 7.68622C6.96686 8.32909 6.64107 8.50415 5.96851 8.43492C4.75198 8.30305 3.53543 8.17908 2.3189 8.06304C1.2416 7.95721 0.995769 7.61303 1.2516 6.57949C1.52189 5.31432 2.11407 4.13838 2.97205 3.16308C3.83003 2.18778 4.92539 1.44542 6.15438 1.00631C7.76851 0.341997 9.49941 0 11.2476 0C12.9957 0 14.7266 0.341997 16.3407 1.00631C17.5212 1.43671 18.5382 2.21804 19.2523 3.24311C19.9664 4.26819 20.3425 5.48681 20.3291 6.73181C20.436 9.92539 20.45 13.1229 20.389 16.3165C20.2712 18.1274 20.8539 19.9148 22.019 21.3161C22.6036 21.9965 22.5187 22.3773 21.8471 22.9519C20.8351 23.8157 19.8244 24.6794 18.8151 25.5432C18.1655 26.099 17.7608 26.1455 17.1712 25.5521C16.3447 24.7203 15.5882 23.8203 14.7897 22.9381C14.2561 23.3881 13.6844 23.935 13.0489 24.3988C11.8539 25.2827 10.4562 25.8596 8.98073 26.0778C7.50528 26.296 5.99821 26.1486 4.59441 25.649C3.44831 25.2923 2.43992 24.5971 1.70464 23.6567C0.96937 22.7163 0.542411 21.5758 0.481095 20.3883C0.202992 18.991 0.311146 17.5452 0.794138 16.2037C1.27713 14.8621 2.11705 13.6744 3.2253 12.7659C4.59663 11.6847 6.23458 10.9851 7.97019 10.7394C9.9289 10.409 11.8976 10.1746 13.8703 9.89868ZM13.9543 13.6016C13.2208 13.6471 12.5892 13.6609 11.9676 13.7391C11.4341 13.8042 10.9063 13.9087 10.3886 14.0516C7.43154 14.8607 6.69103 17.2768 7.32462 19.5566C7.48169 20.1889 7.87645 20.7381 8.42848 21.0924C8.9805 21.4467 9.64826 21.5794 10.2957 21.4634C10.8652 21.3744 11.4058 21.1548 11.8743 20.8222C12.3428 20.4895 12.7262 20.0531 12.9939 19.5477C14.1402 17.712 13.9123 15.6746 13.9543 13.6026V13.6016Z" fill="#D4AC9E"/>
<path d="M75.1581 22.8562C74.6335 23.3161 74.1458 23.7612 73.6351 24.1795C72.2295 25.3787 70.4392 26.0446 68.5834 26.0587C67.5503 26.1004 66.5157 26.0234 65.5004 25.8292C64.3783 25.6104 63.3476 25.0656 62.5396 24.2644C61.7317 23.4633 61.1833 22.4421 60.9644 21.3311C60.5431 19.9603 60.4943 18.5039 60.8227 17.1084C61.1511 15.713 61.8452 14.4278 62.8352 13.3823C64.2893 11.9368 66.1876 11.0106 68.2317 10.7495C70.1124 10.428 72.0112 10.2352 73.8999 9.982C73.9929 9.96815 74.0808 9.9543 74.2857 9.91771C74.2661 8.97056 74.19 8.02538 74.0579 7.08711C73.9091 6.38398 73.4921 5.7647 72.8936 5.35813C72.2952 4.95156 71.5614 4.78902 70.845 4.90431C70.0379 4.89586 69.253 5.1653 68.6246 5.66652C67.9962 6.16774 67.5633 6.86957 67.4002 7.65184C67.2613 8.33625 66.9265 8.5113 66.235 8.43712C65.0358 8.30525 63.8365 8.18262 62.6373 8.06921C61.5141 7.95943 61.2772 7.64195 61.538 6.56687C61.8292 5.2493 62.4642 4.03027 63.3799 3.03138C64.2956 2.03249 65.4599 1.28864 66.7566 0.874004C69.4393 -0.108424 72.3638 -0.243189 75.1272 0.488283C78.8087 1.43973 80.6425 3.76 80.6795 7.53217C80.7122 10.73 80.7168 13.9279 80.6935 17.1258C80.6559 18.4215 81.0706 19.6904 81.8677 20.7189C83.2328 22.4784 82.7592 22.3864 81.515 23.4664C80.6935 24.1785 79.867 24.8906 79.0356 25.5938C78.436 26.1042 78.0232 26.1319 77.4806 25.575C76.7751 24.854 76.1345 24.0678 75.4749 23.3052C75.362 23.1687 75.269 23.0125 75.1581 22.8562ZM74.2297 13.5791C73.2924 13.6661 72.4189 13.6988 71.5695 13.8412C68.5654 14.3357 67.1494 16.0922 67.4562 18.8853C67.4754 19.3714 67.6246 19.8439 67.8885 20.2544C68.1524 20.6649 68.5215 20.9988 68.9584 21.2221C69.3952 21.4454 69.884 21.5501 70.375 21.5254C70.866 21.5008 71.3416 21.3477 71.7534 21.0819C72.6385 20.56 73.3166 19.7542 73.6751 18.7982C74.3687 17.1455 74.2197 15.4128 74.2297 13.5791Z" fill="#D4AC9E"/>
<path d="M136.111 4.90502C136.427 4.3116 136.72 3.70533 137.068 3.13169C137.655 2.10674 138.547 1.28595 139.623 0.781189C140.699 0.276424 141.906 0.112225 143.08 0.310971C144.556 0.368245 145.958 0.972333 147.006 2.00358C148.054 3.03482 148.672 4.41802 148.739 5.87922C148.902 7.37481 148.984 8.87798 148.985 10.3823C149.013 15.1059 148.994 19.8295 148.994 24.5521C148.994 25.5491 148.757 25.7884 147.75 25.7884C146.45 25.793 145.151 25.793 143.852 25.7884C142.896 25.7884 142.645 25.5312 142.645 24.566C142.645 19.6584 142.645 14.7518 142.612 9.84919C142.602 9.16938 142.486 8.49515 142.268 7.85035C142.145 7.43916 141.918 7.0656 141.61 6.76452C141.301 6.46345 140.92 6.24466 140.503 6.12862C140.086 6.01257 139.646 6.00303 139.224 6.10089C138.802 6.19876 138.412 6.40082 138.09 6.68824C137.259 7.43983 136.74 8.46952 136.632 9.5782C136.493 10.3551 136.422 11.1422 136.418 11.9311C136.399 16.1394 136.409 20.3487 136.409 24.5571C136.409 25.5174 136.149 25.7835 135.202 25.7835C133.865 25.7881 132.529 25.7881 131.195 25.7835C130.36 25.7835 130.062 25.4798 130.062 24.6391V1.81727C130.062 1.08242 130.369 0.783735 131.111 0.77879C132.43 0.774174 133.747 0.774174 135.062 0.77879C135.804 0.77879 136.055 1.03593 136.055 1.77573C136.055 2.80531 136.055 3.83391 136.064 4.86349C136.069 4.87734 136.088 4.89019 136.111 4.90502Z" fill="#D4AC9E"/>
<path d="M105.767 13.0833C105.728 10.2049 106.455 7.36699 107.875 4.85459C108.767 3.42026 110.022 2.24169 111.517 1.43585C113.011 0.630003 114.693 0.224877 116.394 0.260665C118.096 0.296453 119.758 0.771914 121.217 1.63987C122.675 2.50782 123.879 3.73811 124.709 5.20867C126.025 7.66716 126.702 10.4117 126.677 13.1941C126.802 16.2225 126.003 19.2178 124.384 21.7907C123.021 23.939 120.858 25.4692 118.363 26.0498C115.868 26.6304 113.242 26.2145 111.055 24.8923C108.838 23.4324 107.238 21.2193 106.558 18.6713C106.008 16.8594 105.741 14.975 105.767 13.0833ZM119.793 13.4512C119.84 12.6447 119.834 11.8359 119.774 11.0301C119.613 9.66809 119.359 8.31852 119.012 6.99089C118.87 6.45081 118.551 5.97214 118.107 5.6285C117.662 5.28486 117.116 5.09531 116.552 5.08899C115.959 4.99048 115.35 5.08779 114.819 5.36594C114.288 5.64408 113.864 6.08758 113.613 6.62793C113.214 7.47175 112.939 8.36762 112.795 9.28842C112.5 11.4917 112.466 13.7217 112.696 15.9327C112.744 17.2934 113.081 18.6288 113.685 19.8523C113.9 20.3038 114.235 20.6892 114.654 20.9677C115.073 21.2463 115.56 21.4075 116.064 21.4343C116.568 21.4612 117.07 21.3527 117.517 21.1203C117.963 20.8879 118.338 20.5404 118.602 20.1143C118.875 19.7001 119.092 19.2522 119.247 18.7821C119.746 17.0508 119.931 15.2455 119.793 13.4503V13.4512Z" fill="#D4AC9E"/>
<path d="M58.8988 44.4267C45.8943 44.2615 32.9418 39.5379 21.8691 29.888C21.8563 29.8745 21.8422 29.8623 21.8271 29.8514C21.3115 29.3964 21.1676 28.9741 21.4044 28.625C21.6413 28.2758 22.0959 28.2709 22.7085 28.5884C24.6073 29.5774 26.4881 30.6238 28.4288 31.5248C35.2217 34.6552 42.4369 36.7956 49.8498 37.8793C54.6173 38.609 59.4445 38.8859 64.2653 38.7062C73.4681 38.3424 82.5315 36.3569 91.0298 32.8432C91.2496 32.7446 91.478 32.6662 91.7123 32.6088C91.9758 32.548 92.2519 32.5712 92.5012 32.6751C92.7506 32.779 92.9603 32.9583 93.1004 33.1874C93.2286 33.4267 93.263 33.7044 93.197 33.9673C93.131 34.2301 92.9691 34.4596 92.7426 34.6116C92.0091 35.1674 91.2436 35.6995 90.4681 36.1871C85.0108 39.5403 78.9874 41.8922 72.6868 43.1301C68.1537 44.068 63.5292 44.5028 58.8988 44.4267Z" fill="#D4AC9E"/>
<path d="M95.0001 5.76452H87.525C86.4897 5.76452 86.2759 5.55287 86.2759 4.55593C86.2759 3.60053 86.2759 2.64414 86.2759 1.68775C86.2759 1.00334 86.5637 0.708601 87.2512 0.708601C92.2046 0.703985 97.1584 0.703985 102.112 0.708601C102.823 0.708601 103.129 0.998387 103.148 1.71049C103.205 2.55381 103.198 3.40024 103.125 4.2424C103.032 4.81696 102.81 5.36354 102.475 5.84167C100.676 8.44678 98.8306 11.0242 97.0018 13.6115C96.0914 14.8972 95.182 16.1889 94.2256 17.535C95.131 17.5854 95.9525 17.6082 96.77 17.6774C98.8086 17.8289 100.795 18.3871 102.61 19.3182C102.914 19.4575 103.17 19.6827 103.345 19.9655C103.52 20.2483 103.607 20.5761 103.594 20.9076C103.603 21.9955 103.613 23.0765 103.594 24.1605C103.58 25.0378 103.024 25.3414 102.211 24.9646C99.8094 23.7668 97.1556 23.1471 94.4659 23.1559C91.7762 23.1646 89.1266 23.8016 86.7326 25.015C86.008 25.3641 85.4284 24.9557 85.4184 24.4038C85.3954 22.9707 85.3675 21.5356 85.4744 20.1074C85.5522 19.4906 85.7851 18.903 86.1519 18.3984C88.9751 14.3276 91.8342 10.2883 94.6853 6.23332C94.7773 6.0998 94.8662 5.96629 95.0001 5.76452Z" fill="#D4AC9E"/>
</svg>
