<svg width="139" height="45" viewBox="0 0 139 45" fill="none" xmlns="http://www.w3.org/2000/svg">
<path d="M106.074 27.3961C106.784 26.8957 107.539 26.4496 108.198 25.8879C112.353 22.3449 116.131 18.3902 119.472 14.0858C119.682 13.7382 119.995 13.4639 120.37 13.3013C120.744 13.1387 121.16 13.0959 121.56 13.1788C121.411 13.4093 121.28 13.6288 121.131 13.8336C118.492 17.4003 115.556 20.7417 112.352 23.8228C110.032 26.0859 107.529 28.1576 104.868 30.0171C104.692 30.1323 104.548 30.2881 104.446 30.471C103.278 32.7816 102.427 35.2363 101.915 37.7701C101.84 38.2626 101.87 38.7651 102.002 39.2457C102.027 39.3709 102.084 39.4879 102.167 39.5857C102.25 39.6836 102.356 39.7593 102.476 39.8058C102.597 39.8524 102.727 39.8684 102.855 39.8522C102.983 39.8361 103.105 39.7884 103.209 39.7135C103.638 39.4842 104.02 39.178 104.336 38.8105C105.336 37.5545 106.335 36.2944 107.224 34.9632C108.902 32.2729 110.754 29.693 112.77 27.2399C114.159 25.5407 115.83 24.0876 117.712 22.9425C118.444 22.5544 119.235 22.2872 120.054 22.1513C120.46 22.0666 120.882 22.1035 121.267 22.2573C121.652 22.4111 121.982 22.6748 122.215 23.0147C122.375 23.2303 122.552 23.4281 122.793 23.7169C123.008 22.5301 123.823 22.4935 124.739 22.5439C125.655 22.5944 126.608 22.5548 127.667 22.5548C127.532 22.8179 127.445 23.0157 127.339 23.2026C124.903 27.439 122.469 31.6763 120.037 35.9147C119.52 36.8176 119.066 37.7612 118.638 38.7077C118.538 38.9381 118.664 39.2655 118.685 39.5503C118.975 39.5529 119.264 39.504 119.536 39.4059C120.911 38.5146 122.102 37.3736 123.046 36.0432C123.716 35.1689 124.373 34.2798 124.966 33.3511C125.071 33.1173 125.253 32.9256 125.482 32.8073C125.711 32.6889 125.974 32.6509 126.228 32.6993C126.404 32.7138 126.58 32.7138 126.756 32.6993C126.745 32.7982 126.756 32.8615 126.734 32.8971C124.957 35.851 122.799 38.5635 120.315 40.9666C119.26 41.8137 118.148 42.5892 116.987 43.2879C116.936 43.3162 116.882 43.3404 116.827 43.3601C114.784 44.271 113.401 43.3848 113.429 41.1842C113.429 40.9538 113.429 40.7233 113.429 40.393C113.244 40.5582 113.106 40.6986 112.95 40.8173C111.935 41.5947 110.939 42.3997 109.892 43.1277C109.483 43.3895 109.023 43.5646 108.543 43.6419C108.188 43.7216 107.819 43.7206 107.464 43.639C107.11 43.5574 106.778 43.3974 106.495 43.1708C106.212 42.9443 105.984 42.6572 105.829 42.3311C105.674 42.005 105.596 41.6484 105.601 41.2881C105.554 40.7016 105.594 40.1111 105.594 39.4485C104.946 40.1408 104.4 40.8123 103.75 41.3781C102.998 42.076 102.171 42.6902 101.284 43.2097C99.0948 44.3867 97.0872 43.1989 96.9383 40.7223C96.9144 39.1395 97.1767 37.5653 97.7128 36.0739C98.1015 34.803 98.5272 33.5469 98.9599 32.2167C98.1784 32.3027 97.4509 32.3571 96.7344 32.4797C96.5815 32.5045 96.4506 32.7676 96.3486 32.9436C95.0109 35.3216 93.4184 37.5502 91.5988 39.5909C90.4062 40.922 88.9978 42.0471 87.4315 42.92C86.9049 43.21 86.3426 43.4315 85.7586 43.5786C85.3477 43.7141 84.91 43.7502 84.4822 43.6841C84.0543 43.618 83.6486 43.4515 83.299 43.1985C82.9494 42.9456 82.666 42.6135 82.4726 42.23C82.2791 41.8466 82.1812 41.4229 82.1869 40.9943C82.0673 39.508 82.2795 38.0139 82.8085 36.6179C84.5053 31.8648 87.4574 27.6482 91.3579 24.4063C92.5314 23.3787 93.9294 22.634 95.4423 22.2304C97.1222 21.8091 98.4403 22.3382 98.868 23.6774C99.0555 24.3433 99.1292 25.0357 99.0859 25.7257C98.9408 27.2639 98.4998 28.7605 97.7867 30.1348L97.387 31.0249C97.9033 31.1525 98.4482 31.1019 98.9316 30.8814C99.415 30.6609 99.8078 30.2838 100.045 29.8123C103.147 23.3002 107.056 17.1958 111.683 11.6399C114.115 8.74331 116.849 6.10849 119.839 3.77908C121.111 2.65541 122.656 1.87892 124.323 1.52607C125.756 1.31343 126.411 1.88212 126.44 3.30632C126.431 4.60694 126.018 5.8734 125.258 6.93409C125.018 7.2941 124.33 7.35838 123.847 7.56014C123.807 7.5097 123.771 7.46124 123.731 7.40882C123.978 6.9054 124.258 6.41188 124.458 5.88967C124.736 5.21731 124.956 4.5224 125.113 3.8127C125.229 3.18269 124.902 2.96015 124.327 3.28357C123.565 3.70803 122.847 4.20489 122.182 4.76711C119.488 7.1183 117.078 9.76931 114.999 12.6675C111.767 17.088 108.87 21.74 106.333 26.5851C106.209 26.8225 106.122 27.0797 106.02 27.3269C106.02 27.3704 106.009 27.4129 106.005 27.4604C106.03 27.4408 106.053 27.4193 106.074 27.3961ZM110.918 38.6711C110.889 38.8315 110.91 38.9971 110.981 39.1447C111.051 39.2922 111.166 39.4144 111.31 39.4941C111.453 39.5737 111.619 39.6069 111.783 39.589C111.946 39.5711 112.101 39.5029 112.223 39.3941C112.937 38.9318 113.573 38.3611 114.107 37.7028C117.114 33.8664 119.204 29.4681 121.748 25.3469C121.826 25.2454 121.87 25.1229 121.875 24.9958C121.881 24.8687 121.847 24.7429 121.778 24.6354C121.709 24.5279 121.609 24.4437 121.491 24.3941C121.372 24.3445 121.241 24.3319 121.115 24.3578C120.642 24.4393 120.193 24.6222 119.799 24.8939C119.324 25.2296 118.883 25.6106 118.483 26.0313C115.796 28.7996 113.567 31.9706 111.878 35.4271C111.321 36.4252 110.994 37.5336 110.922 38.6721L110.918 38.6711ZM91.6687 28.9281C89.8837 31.168 88.4919 33.6889 87.5514 36.3854C87.3653 37.0306 87.2976 37.7036 87.3515 38.3724C87.3485 38.5737 87.3986 38.7723 87.4969 38.9485C87.5952 39.1248 87.7383 39.2726 87.912 39.3773C88.0858 39.482 88.2841 39.54 88.4875 39.5455C88.6908 39.5511 88.8921 39.504 89.0714 39.4089C89.6133 39.1971 90.115 38.8961 90.5554 38.5188C92.5018 36.7597 94.0765 34.6362 95.1884 32.2711C95.2034 32.2424 95.1884 32.1989 95.1734 32.1168C93.6597 31.5019 92.4183 30.3712 91.6737 28.9291L91.6687 28.9281ZM93.1887 27.5712C93.2116 28.2604 93.4385 28.9277 93.8413 29.4903C94.244 30.053 94.8049 30.4861 95.4542 30.7361C95.825 30.8943 96.0648 30.8835 96.2257 30.473C96.6585 29.3851 97.1861 28.3209 97.5249 27.2013C97.6979 26.5131 97.7386 25.7988 97.6448 25.0956C97.5538 24.2055 96.9972 23.8791 96.1178 24.0522C95.3329 24.2862 94.6359 24.7457 94.1153 25.3724C93.5947 25.9991 93.2739 26.7648 93.1937 27.5722L93.1887 27.5712Z" fill="#D4AC9E"/>
<path d="M59.3609 12.8336C59.5538 12.0236 60.1104 11.9771 60.76 12.0018C61.8073 12.0414 62.8586 12.0127 64.0298 12.0127C63.8839 12.2965 63.783 12.5072 63.6621 12.7149C60.8506 17.5598 58.0398 22.4038 55.2296 27.2467C55.0407 27.5594 54.9101 27.9031 54.8439 28.2615C54.7679 28.7619 55.1057 29.0141 55.5604 28.7906C56.0624 28.5798 56.5219 28.2809 56.9165 27.9084C58.3426 26.3823 59.7896 24.8632 61.0698 23.2224C61.2974 22.9185 61.6133 22.6905 61.9752 22.569C62.3371 22.4474 62.7279 22.4379 63.0954 22.5419C62.6118 23.2184 62.186 23.8276 61.7463 24.4319C60.0672 26.8746 58.0827 29.0975 55.8402 31.0476C55.0915 31.6616 54.2908 32.2106 53.4468 32.6884C52.9499 32.9511 52.402 33.1059 51.8398 33.1423C51.5818 33.1658 51.3216 33.1359 51.0758 33.0543C50.8301 32.9728 50.6043 32.8415 50.4127 32.6688C50.2211 32.4961 50.0679 32.2858 49.963 32.0513C49.858 31.8168 49.8036 31.5632 49.8032 31.3067C49.7812 30.9032 49.8032 30.5006 49.8032 29.9675C49.6173 30.1475 49.5034 30.284 49.3635 30.3918C48.3641 31.1583 47.3847 31.9426 46.3594 32.6666C46.0081 32.874 45.6207 33.0145 45.2172 33.081C44.8358 33.2128 44.4271 33.2481 44.0285 33.1836C43.6298 33.1191 43.2538 32.957 42.9346 32.7119C42.6154 32.4668 42.3633 32.1466 42.2012 31.7804C42.039 31.4142 41.972 31.0137 42.0063 30.6154C42.0609 29.85 42.1728 29.0896 42.3411 28.3406C42.37 28.1606 42.417 27.9875 42.49 27.671C41.5266 28.5671 40.6911 29.3731 39.8207 30.1436C38.4768 31.4713 36.8211 32.4483 35.0019 32.9871C34.0647 33.2804 33.0589 33.2804 32.1218 32.9871C31.431 32.7118 30.833 32.2487 30.3968 31.6514C29.9605 31.0542 29.7039 30.347 29.6564 29.6115C29.4103 28.0387 29.642 26.429 30.3219 24.9868C30.9115 23.6259 31.5661 22.2947 32.2347 20.8625C31.3003 21.2047 30.282 21.0425 29.6674 22.173C28.2405 24.9693 26.3456 27.5064 24.063 29.6768C22.962 30.6526 21.7933 31.5508 20.5653 32.365C19.9863 32.7195 19.3465 32.9659 18.6776 33.0919C18.324 33.1913 17.9538 33.2189 17.5891 33.1732C17.2245 33.1274 16.873 33.0093 16.5556 32.8257C16.2383 32.6422 15.9617 32.3971 15.7425 32.1051C15.5232 31.8131 15.3659 31.4803 15.2798 31.1267C14.9231 29.7554 14.9459 28.3145 15.3458 26.955C16.2027 23.7379 17.7731 20.7502 19.9427 18.209C21.4754 16.2301 23.3138 14.5028 25.3902 13.0907C26.4263 12.3659 27.6002 11.8565 28.8409 11.5933C29.2661 11.4697 29.7151 11.4491 30.15 11.5334C30.5849 11.6177 30.9929 11.8043 31.3396 12.0776C31.6863 12.3508 31.9614 12.7026 32.1417 13.1033C32.322 13.5039 32.4022 13.9416 32.3756 14.3794C32.3748 15.8085 32.0778 17.2223 31.5032 18.5334C31.3683 18.8894 31.2194 19.2385 31.0035 19.7677C31.4333 19.6499 31.8549 19.5045 32.2657 19.3325C33.8737 18.4222 35.3411 17.2877 36.6228 15.9639C37.877 14.7831 39.1968 13.6727 40.5762 12.6378C41.543 11.8996 42.7341 11.5077 43.955 11.5261C44.4015 11.4913 44.85 11.5613 45.264 11.7304C45.6781 11.8995 46.0459 12.163 46.3376 12.4994C46.6293 12.8358 46.8366 13.2356 46.9426 13.6663C47.0487 14.0969 47.0506 14.5463 46.948 14.9778C46.7197 16.4398 46.0117 17.7868 44.9334 18.8113C44.2208 19.4947 43.4973 19.646 42.9477 19.2751C42.6572 19.0247 42.4699 18.6772 42.4216 18.2989C42.3733 17.9206 42.4674 17.538 42.6858 17.2239C42.8728 16.6805 43.2142 16.202 43.669 15.8457C44.1238 15.4894 44.6728 15.2705 45.2502 15.2152C45.3261 15.1936 45.3959 15.1551 45.4545 15.1026C45.513 15.0501 45.5587 14.9851 45.5879 14.9125C45.6585 14.7508 45.6809 14.5724 45.6526 14.3985C45.6242 14.2245 45.5462 14.0622 45.4278 13.9307C45.3093 13.7991 45.1554 13.7038 44.984 13.6559C44.8127 13.608 44.6311 13.6096 44.4607 13.6604C43.7849 13.8249 43.1516 14.1281 42.6019 14.5505C39.3675 17.2784 36.8882 20.7764 35.3976 24.7148C35.0411 25.7056 34.7736 26.7257 34.5981 27.763C34.5636 28.1282 34.6199 28.4963 34.762 28.8351C34.8782 29.2501 35.1531 29.6039 35.5285 29.8216C35.9038 30.0393 36.3501 30.1037 36.7727 30.0012C37.8973 29.7341 38.9278 29.1705 39.7548 28.3703C41.9926 26.3274 43.9796 24.0309 45.6749 21.5281C47.5159 18.7506 49.7045 16.2148 52.1886 13.9809C53.0284 13.2627 53.9413 12.6329 54.9128 12.1017C56.7606 11.1137 57.8279 11.3233 59.3609 12.8336ZM47.3018 27.8401C47.2728 28.8944 47.9524 29.3445 48.589 28.8915C49.3676 28.3508 50.0814 27.724 50.7166 27.0232C51.371 26.2573 51.9505 25.4317 52.4474 24.5575C54.4041 21.268 56.3239 17.9637 58.2436 14.6524C58.3496 14.4684 58.4185 14.1124 58.3196 13.9977C58.1255 13.7953 57.8597 13.6755 57.5781 13.6634C57.2658 13.675 56.9637 13.7764 56.7086 13.9551C56.1326 14.343 55.597 14.7866 55.1097 15.2795C54.3862 16.0568 53.7316 16.9025 53.073 17.7412C50.9447 20.2578 49.1944 23.0653 47.8764 26.0767C47.6106 26.7305 47.4347 27.4218 47.3018 27.8401ZM24.6886 18.2624C23.2982 20.0951 22.1266 22.0807 21.1969 24.1797C20.8326 25.109 20.554 26.069 20.3645 27.0479C20.2814 27.3613 20.2994 27.6926 20.4161 27.9954C20.5327 28.2981 20.7422 28.5572 21.015 28.7362C21.2847 28.8774 21.5912 28.9347 21.8943 28.9006C22.1974 28.8666 22.4831 28.7427 22.7139 28.5453C23.265 28.1849 23.7844 27.7792 24.2669 27.3328C25.9602 25.5752 27.3972 23.5922 28.5361 21.4411C28.5707 21.3601 28.5962 21.2755 28.6121 21.1889C26.9826 20.7262 25.5846 19.6816 24.6886 18.2574V18.2624ZM30.8306 15.3863C30.8306 15.232 30.8416 15.0767 30.8306 14.9254C30.8514 14.6962 30.8108 14.4657 30.7129 14.257C30.615 14.0484 30.4632 13.869 30.2729 13.7369C30.0826 13.6048 29.8604 13.5247 29.6288 13.5046C29.3972 13.4846 29.1644 13.5254 28.9538 13.6228C28.2201 13.9046 27.58 14.3826 27.1048 15.0034C26.6296 15.6242 26.338 16.3636 26.2626 17.1388C26.2476 18.5235 27.9505 19.7162 29.2776 19.7519C29.3318 19.7482 29.3844 19.732 29.4311 19.7045C29.4778 19.677 29.5174 19.639 29.5464 19.5936C30.2702 18.2939 30.7079 16.8574 30.8306 15.3784V15.3863Z" fill="#D4AC9E"/>
<path d="M94.5458 3.13559C93.5207 2.80941 92.4066 2.89868 91.4478 3.38384C89.3145 4.38696 87.3305 5.67552 85.5517 7.21336C81.9692 10.3503 78.7988 13.9199 76.1149 17.8385C73.1509 21.7467 70.8806 26.1257 69.4013 30.7879C68.8223 32.5293 68.5228 34.3498 68.5139 36.183C68.5384 36.7983 68.6573 37.4062 68.8666 37.986C69.0012 38.4434 69.2324 38.8671 69.5449 39.2294C69.8574 39.5916 70.2441 39.884 70.6794 40.0872C71.1147 40.2904 71.5886 40.3997 72.0698 40.408C72.551 40.4163 73.0285 40.3233 73.4706 40.1352C74.5239 39.7326 75.503 39.1612 76.3687 38.444C79.7325 35.7278 82.1193 32.0085 83.1733 27.8406C83.3412 27.069 83.4024 26.2785 83.3552 25.4906C83.3192 24.5155 82.7156 24.1337 81.7562 24.375C81.0047 24.6066 80.3507 25.0756 79.8944 25.7102C78.6495 27.2032 77.7897 28.9733 77.3891 30.868C77.3394 31.0805 77.2073 31.2652 77.0213 31.3823C75.1291 32.3484 73.4229 33.6359 71.9806 35.1861C71.9296 35.2405 71.8717 35.285 71.7258 35.4126C71.874 33.8784 72.2061 32.3671 72.7151 30.9105C73.5546 28.1393 75.228 25.6872 77.512 23.8815C78.7103 22.9424 80.145 22.345 81.6613 22.1537C82.2451 22.0606 82.8433 22.1765 83.3484 22.4807C83.8536 22.7849 84.2326 23.2573 84.4175 23.8132C84.8891 25.2164 84.9055 26.7304 84.4644 28.1432C83.2523 32.6026 80.7719 36.6237 77.3181 39.7287C75.8198 41.2295 74.023 42.4062 72.0416 43.1844C70.8413 43.665 69.5348 43.8263 68.2521 43.6522C65.328 43.1775 63.768 41.2627 63.0295 38.5992C62.4286 36.0876 62.5624 33.4585 63.4152 31.0193C65.228 25.4259 68.0714 20.2129 71.8017 15.6439C75.0102 11.3505 78.9341 7.62933 83.4051 4.6399C85.6973 3.09851 88.2454 1.96798 90.9332 1.29995C91.6102 1.06905 92.3295 0.984884 93.0423 1.05314C93.7551 1.1214 94.4447 1.34049 95.0645 1.69557C95.4022 1.94426 95.8042 2.09316 96.2239 2.12502C96.6436 2.15688 97.0638 2.07038 97.4359 1.87556C99.026 1.27227 100.73 1.02057 102.429 1.13812C104.128 1.25567 105.78 1.73962 107.269 2.55602C109.819 3.87736 112.284 5.36684 114.783 6.78511C114.87 6.84167 114.953 6.90309 115.033 6.96908L111.783 10.4059C111.283 10.1221 110.749 9.84418 110.248 9.52769C108.291 8.3003 106.35 7.04028 104.385 5.82773C102.795 4.81062 101.024 4.10115 99.1668 3.73692C98.5321 3.6594 97.891 3.64845 97.254 3.70428C96.9482 3.71516 96.8033 3.88824 96.8173 4.24429C96.8425 7.11547 96.0019 9.92883 94.4029 12.3247C93.4071 14.1255 92.0567 15.7104 90.4315 16.986C89.7583 17.4762 89.0266 17.8825 88.253 18.1956C86.1184 19.0629 84.7322 17.792 84.8552 15.6112C84.9305 14.826 85.1329 14.058 85.4548 13.3364C87.1572 9.32131 90.0757 5.92739 93.8083 3.6222C94.0112 3.4778 94.222 3.34427 94.5458 3.13559ZM95.5532 4.26901C95.2004 4.44506 95.0255 4.52419 94.8626 4.61815C91.1933 6.79007 88.3038 10.0451 86.6 13.9259C86.3507 14.4894 86.2043 15.0921 86.1673 15.7062C86.0874 16.8287 86.9278 17.3766 87.9751 16.9078C88.4879 16.6753 88.9693 16.3802 89.4082 16.0296C92.4717 13.6806 94.5608 10.3034 95.2813 6.53488C95.4182 5.83465 95.4512 5.11463 95.5532 4.26901Z" fill="#D4AC9E"/>
<path d="M58.8372 44.3738C56.74 42.9872 54.3573 42.0797 51.8618 41.7172C50.397 41.5308 48.9152 41.5152 47.4467 41.6707C46.61 41.788 45.8111 42.0916 45.11 42.5586C44.409 43.0256 43.8241 43.6438 43.3993 44.3668C43.3414 44.3273 43.2794 44.3055 43.2534 44.262C42.546 43.1006 41.5808 42.1137 40.431 41.376C39.2812 40.6384 37.9769 40.1693 36.6168 40.0042C33.2104 39.5328 29.7429 39.7495 26.4235 40.6412C22.6519 41.5046 18.8954 42.4412 15.1169 43.2829C12.8225 43.8803 10.4124 43.8915 8.11248 43.3155C6.23534 42.8814 4.5414 41.8795 3.26594 40.449C1.99047 39.0185 1.1968 37.2304 0.995149 35.333C0.518949 31.6412 1.02783 27.8904 2.47118 24.4537C4.85651 18.3081 8.68235 12.8109 13.6339 8.41459C16.3886 5.75541 19.6116 3.61723 23.1436 2.10557C24.7374 1.41925 26.4498 1.04284 28.1873 0.996866C28.7167 0.960954 29.2473 1.04856 29.7363 1.25264C30.2252 1.45671 30.659 1.77153 31.0025 2.17179C31.3461 2.57205 31.5899 3.04655 31.7144 3.55709C31.8388 4.06764 31.8404 4.59997 31.719 5.11124C31.4791 6.50925 30.832 7.80753 29.8572 8.8468C29.4435 9.24705 28.9307 9.53255 28.3702 9.67462C27.5517 9.90506 27.0281 9.47681 26.9012 8.63416C26.8802 7.86166 27.1172 7.10388 27.5753 6.47811C28.0335 5.85234 28.6873 5.39347 29.4355 5.17255C29.6973 5.12607 30.135 5.03904 30.166 4.8986C30.2823 4.51819 30.2604 4.10949 30.1041 3.7434C29.994 3.57132 29.8478 3.42475 29.6753 3.31364C29.5029 3.20253 29.3083 3.12951 29.1047 3.09955C28.4288 3.07351 27.7537 3.16866 27.112 3.38043C24.9109 4.18788 22.9131 5.45871 21.2569 7.10511C15.8329 12.0466 11.5455 18.0842 8.68511 24.8088C7.39089 27.6056 6.72696 30.6477 6.73938 33.7239C6.77584 34.609 6.90988 35.4875 7.13911 36.3438C7.88463 39.122 10.0372 40.3672 12.6305 41.0447C14.5965 41.5032 16.6456 41.4822 18.6016 40.9834C23.2126 39.9538 27.8066 38.8421 32.4066 37.7552C35.3396 37.0421 38.3331 36.5998 41.3487 36.4338C46.589 36.1134 51.744 37.8618 55.6843 41.2959C56.8046 42.2424 57.8479 43.2789 58.9282 44.2758C58.896 44.3067 58.8656 44.3394 58.8372 44.3738Z" fill="#D4AC9E"/>
<path d="M116.258 12.165C117.291 10.9416 118.247 9.80024 119.218 8.67769C119.279 8.6217 119.352 8.57877 119.43 8.55155C119.509 8.52434 119.593 8.51341 119.676 8.51944C124.942 8.87549 129.226 6.62643 133.175 3.51692C133.975 2.88394 134.721 2.1669 135.536 1.44788C135.535 1.54409 135.52 1.63967 135.492 1.73172C132.434 6.93599 128.153 10.6182 122.171 12.1472C120.235 12.661 118.197 12.6671 116.258 12.165Z" fill="#D4AC9E"/>
<path d="M71.1691 12.0137C70.4016 13.2994 69.7141 14.4576 69.0085 15.6088C68.9698 15.67 68.9183 15.7222 68.8574 15.762C68.7966 15.8017 68.7278 15.8281 68.6558 15.8393C67.4156 15.8571 66.1724 15.8502 64.8223 15.8502C65.5828 14.5793 66.2843 13.3924 67.0039 12.2115C67.0404 12.1591 67.0879 12.1149 67.143 12.082C67.1981 12.0491 67.2597 12.0282 67.3237 12.0206C68.5619 12.0097 69.802 12.0137 71.1691 12.0137Z" fill="#D4AC9E"/>
<path d="M129.608 38.6335H130.957C131.215 39.7778 131.47 40.9152 131.727 42.0565L131.843 42.0783C132.101 40.9369 132.36 39.7966 132.622 38.6443H133.989V43.4204H133.124V39.9588C133.088 39.9588 133.048 39.9479 133.011 39.9439C132.756 41.0991 132.505 42.2513 132.254 43.3917C131.327 43.5361 131.327 43.5361 131.145 42.6934C130.985 41.8405 130.76 41.0008 130.472 40.1813V43.4313H129.611C129.608 41.837 129.608 40.2634 129.608 38.6335Z" fill="#D4AC9E"/>
<path d="M138.095 41.1278C138.801 41.8201 138.532 42.6213 138.514 43.4204H137.572C137.572 43.0357 137.561 42.6578 137.572 42.279C137.594 41.7608 137.339 41.5373 136.83 41.5482C136.539 41.5551 136.248 41.5482 135.896 41.5482V43.4016H134.953V38.6216C135.808 38.6216 136.644 38.6038 137.478 38.6285C137.754 38.6422 138.017 38.749 138.223 38.931C138.429 39.1131 138.567 39.3595 138.612 39.6294C138.703 39.9007 138.702 40.1942 138.609 40.4649C138.516 40.7356 138.335 40.9685 138.095 41.1278ZM135.903 40.7213C136.313 40.7213 136.677 40.7213 137.041 40.7213C137.456 40.7213 137.707 40.5591 137.707 40.1131C137.718 40.0264 137.71 39.9384 137.683 39.8551C137.656 39.7719 137.611 39.6956 137.551 39.6316C137.491 39.5677 137.417 39.5177 137.335 39.4851C137.253 39.4526 137.165 39.4384 137.077 39.4435C136.695 39.4257 136.313 39.4435 135.903 39.4435C135.903 39.8797 135.903 40.2525 135.903 40.7213Z" fill="#D4AC9E"/>
</svg>
