<svg width="139" height="45" viewBox="0 0 139 45" fill="none" xmlns="http://www.w3.org/2000/svg">
<path d="M0.667816 18.862C0.667816 17.9006 0.667821 16.9443 0.672818 15.9829C1.04066 12.8134 2.23004 9.79175 4.12556 7.2112C5.54554 5.29965 7.33958 3.69034 9.40089 2.47905C11.4622 1.26776 13.7487 0.479251 16.1242 0.160435C18.4998 -0.158381 20.9158 -0.000987367 23.2286 0.623258C25.5415 1.2475 27.7038 2.32585 29.5869 3.7941C30.7861 4.74555 30.7861 4.74554 29.7328 5.786C29.1142 6.39821 28.4546 6.98669 27.876 7.63352C27.4533 8.11122 27.1814 8.04693 26.7087 7.66319C24.1796 5.57714 20.9293 4.54736 17.6463 4.79197C14.3632 5.03658 11.3053 6.53636 9.12028 8.97365C7.45777 10.8622 6.38929 13.1905 6.04626 15.6722C5.70324 18.1539 6.10062 20.6806 7.18954 22.9417C8.21247 25.2075 9.9135 27.1079 12.0628 28.3861C14.2121 29.6644 16.706 30.259 19.2077 30.0894C21.7743 30.0822 24.2682 29.2444 26.309 27.7039C28.2876 26.2199 29.612 24.0382 30.0066 21.6125C30.1425 20.9102 29.9916 20.7362 29.2821 20.7461C26.0712 20.7807 22.8603 20.7263 19.6494 20.7856C18.738 20.8005 18.5071 20.5166 18.5671 19.67C18.6209 18.6818 18.6242 17.6915 18.5771 16.7029C18.5621 16.1995 18.658 15.9513 19.2616 15.9562C24.2584 15.976 29.2551 15.9776 34.2518 15.9612C34.7515 15.9612 34.9463 16.1303 35.0013 16.6139C36.2595 27.5921 28.7304 34.5648 19.4645 34.9041C15.1603 35.0704 10.9365 33.717 7.54743 31.0856C4.15841 28.4543 1.82488 24.7163 0.963627 20.5394C0.8537 19.9825 0.763753 19.4198 0.667816 18.862Z" fill="#D4AC9E"/>
<path d="M103.337 14.9158C103.448 13.1128 103.448 13.1128 105.199 13.1128C105.899 13.1128 106.598 13.1622 107.288 13.0979C108.002 13.0336 108.133 13.3224 108.133 13.9643C108.108 18.1281 108.123 22.2919 108.118 26.4617C108.118 29.1568 108.173 31.8559 108.078 34.551C108.101 37.2508 107.103 39.8614 105.28 41.8698C100.283 47.1117 90.5688 45.5154 87.5088 38.9809C87.2969 38.5279 87.3279 38.2836 87.8306 38.0907C88.8469 37.702 89.8642 37.3084 90.8456 36.8455C91.4242 36.5716 91.6561 36.7308 91.9529 37.2491C92.5618 38.4385 93.5504 39.3956 94.7653 39.972C95.9801 40.5484 97.3532 40.7118 98.6715 40.4367C101.37 40.0183 103.146 37.9167 103.362 34.8329C103.417 34.0604 103.372 33.2791 103.372 32.5165C103.32 32.4804 103.255 32.4659 103.192 32.476C103.129 32.4862 103.073 32.5202 103.035 32.5709C100.317 35.1513 97.1315 35.4302 93.7587 34.2691C91.4638 33.4243 89.5035 31.8727 88.1666 29.8426C86.8296 27.8125 86.1865 25.4112 86.3319 22.9922C86.4774 20.5732 87.4038 18.2644 88.9746 16.4055C90.5455 14.5467 92.6779 13.2361 95.0579 12.6667C96.4385 12.2911 97.8939 12.2759 99.2822 12.6225C100.671 12.9692 101.944 13.6659 102.98 14.6448C103.091 14.745 103.211 14.8357 103.337 14.9158ZM91.3453 23.7715C91.319 24.3906 91.3957 25.0097 91.5722 25.6042C91.8341 26.7696 92.4303 27.8354 93.2892 28.6738C94.148 29.5122 95.2329 30.0875 96.414 30.3308C97.4972 30.602 98.6382 30.5415 99.686 30.1572C100.734 29.7729 101.639 29.083 102.282 28.1786C103.231 26.8851 103.748 25.3303 103.761 23.7317C103.773 22.1331 103.281 20.5705 102.352 19.2626C101.865 18.5528 101.215 17.9669 100.456 17.5524C99.6975 17.1379 98.8504 16.9065 97.984 16.877C94.2434 16.7346 91.3642 19.6789 91.3453 23.7676V23.7715Z" fill="#D4AC9E"/>
<path d="M48.4745 34.8852C46.2284 34.8699 44.0374 34.1958 42.1785 32.9481C40.3195 31.7004 38.8762 29.9352 38.0309 27.8757C37.1857 25.8162 36.9765 23.5549 37.4298 21.3778C37.8831 19.2006 38.9786 17.2054 40.5777 15.6444C42.1767 14.0834 44.2077 13.0267 46.4136 12.608C48.6194 12.1893 50.9012 12.4274 52.9704 13.2921C55.0396 14.1568 56.8032 15.6093 58.0383 17.466C59.2733 19.3227 59.9243 21.5002 59.909 23.723C59.9174 25.2042 59.6262 26.6722 59.0526 28.0403C58.479 29.4084 57.6345 30.6492 56.5689 31.6893C55.5034 32.7295 54.2383 33.5482 52.8481 34.097C51.458 34.6459 49.9709 34.9139 48.4745 34.8852ZM42.0786 24.6092C42.149 25.5504 42.4371 26.463 42.9205 27.2766C43.404 28.0901 44.0699 28.7828 44.8668 29.3012C45.8414 30.0333 47.0201 30.4509 48.2428 30.4973C49.4655 30.5437 50.673 30.2165 51.7013 29.5603C52.8787 28.8307 53.8054 27.7657 54.3596 26.5051C54.9138 25.2445 55.0695 23.8475 54.8063 22.4976C54.6818 21.2317 54.1675 20.0341 53.333 19.0667C52.4986 18.0994 51.3841 17.4089 50.1404 17.0886C45.9381 15.9127 42.0826 19.0904 42.0777 24.6092H42.0786Z" fill="#D4AC9E"/>
<path d="M61.7168 23.5639C61.723 21.3249 62.4016 19.1383 63.6664 17.2819C64.9311 15.4255 66.725 13.9832 68.82 13.1381C70.915 12.2931 73.2166 12.0835 75.4323 12.536C77.6479 12.9885 79.6776 14.0827 81.2634 15.6795C82.8492 17.2763 83.9196 19.3036 84.3385 21.5039C84.7574 23.7042 84.506 25.978 83.616 28.0365C82.7261 30.095 81.238 31.8451 79.3406 33.0646C77.4433 34.2841 75.2225 34.9178 72.9604 34.8853C71.4649 34.8939 69.9828 34.6055 68.6018 34.0371C67.2209 33.4688 65.9693 32.632 64.9209 31.5764C63.8725 30.5208 63.0488 29.2678 62.4984 27.8915C61.9481 26.5152 61.6823 25.0436 61.7168 23.5639ZM79.5431 23.6835C79.6232 22.0037 79.0452 20.358 77.9295 19.0896C76.8137 17.8211 75.2463 17.0279 73.554 16.8751C72.0426 16.7734 70.5441 17.21 69.3294 18.106C68.1148 19.002 67.2639 20.2983 66.9304 21.7609C66.487 23.2856 66.582 24.9143 67.1997 26.3784C67.8174 27.8426 68.9209 29.0546 70.3282 29.8146C74.6514 31.9469 79.5231 28.7039 79.5431 23.6835Z" fill="#D4AC9E"/>
<path d="M118.075 23.5391C118.095 18.2972 121.256 14.0058 126.017 12.7656C130.969 11.4799 135.604 13.6419 138.009 18.3744C139.227 20.7698 139.232 20.7797 136.776 21.7865C132.724 23.4501 128.681 25.1136 124.612 26.7426C123.957 27.0066 123.867 27.1955 124.259 27.7988C124.808 28.6027 125.54 29.267 126.398 29.7376C127.255 30.2081 128.212 30.4716 129.192 30.5066C130.171 30.5416 131.146 30.3471 132.035 29.939C132.924 29.5308 133.703 28.9205 134.309 28.1579C134.853 27.51 135.19 27.3904 135.859 27.9235C136.593 28.5016 137.374 29.018 138.195 29.4673C138.859 29.8363 138.738 30.1151 138.336 30.6077C136.842 32.4811 134.79 33.8414 132.471 34.4958C130.152 35.1501 127.684 35.0653 125.416 34.2533C123.209 33.4585 121.312 31.9953 119.994 30.0717C118.676 28.1481 118.004 25.8622 118.075 23.5391ZM123.028 22.6371C122.872 23.2899 123.219 23.2394 123.772 23.0109C126.414 21.9151 129.069 20.844 131.709 19.7472C132.193 19.5493 133.022 19.493 133.043 19.0301C133.073 18.3872 132.388 17.9491 131.83 17.5753C131.329 17.2387 130.764 17.0065 130.169 16.8928C129.31 16.7528 128.431 16.7947 127.59 17.0159C126.749 17.2371 125.965 17.6325 125.29 18.176C124.615 18.7195 124.064 19.3986 123.674 20.1685C123.284 20.9384 123.063 21.7815 123.027 22.642L123.028 22.6371Z" fill="#D4AC9E"/>
<path d="M115.975 17.776C115.975 22.9615 115.96 28.146 115.99 33.3265C115.99 34.0188 115.844 34.278 115.099 34.2335C114.071 34.1687 113.041 34.1687 112.014 34.2335C111.259 34.278 111.052 34.0446 111.057 33.2969C111.087 26.0443 111.072 18.7927 111.072 11.5382C111.072 8.3901 111.092 5.24696 111.057 2.09887C111.052 1.44117 111.208 1.19689 111.908 1.23744C112.996 1.29224 114.087 1.29224 115.175 1.23744C115.819 1.20777 115.985 1.41645 115.98 2.04448C115.965 7.29129 115.975 12.5361 115.975 17.776Z" fill="#D4AC9E"/>
</svg>
